<svg width="204" height="204" viewBox="0 0 204 204" fill="none" xmlns="http://www.w3.org/2000/svg">
<path d="M41.4375 146.625H162.562V197.625H41.4375V146.625Z" fill="#FFEAA7"/>
<path d="M140.25 93.075C140.25 94.7644 140.122 96.4538 139.836 98.1113L139.74 98.7487L133.875 133.875H70.125L64.26 98.7487L64.1644 98.1113C63.8775 96.4538 63.75 94.7644 63.75 93.075C63.75 86.5088 65.8537 80.1337 69.7425 74.8744C69.8062 74.8106 69.8381 74.7469 69.87 74.715L73.3125 70.125H79.6875H124.312H130.688L134.13 74.715C134.162 74.7788 134.194 74.8106 134.257 74.8744C138.146 80.1337 140.25 86.5088 140.25 93.075Z" fill="#FCD770"/>
<path d="M184.875 46.0912V60.5625C184.875 78.1575 170.595 92.4375 153 92.4375C152.458 92.4375 151.916 92.3419 151.406 92.2144C152.426 90.3975 153 88.2937 153 86.0625C153 83.8631 152.426 81.7912 151.438 79.9744C152.044 79.7831 152.713 79.6875 153.351 79.6875C163.71 79.6875 172.125 71.2725 172.125 60.9131V46.0912C174.006 47.175 176.173 47.8125 178.5 47.8125C180.827 47.8125 182.994 47.175 184.875 46.0912Z" fill="#E6E9ED"/>
<path d="M70.4756 144.521C71.4956 145.191 72.2287 146.083 72.7069 147.135C71.2087 147.772 69.8381 148.697 68.6269 149.908C66.8738 151.629 65.7262 153.733 65.2162 155.964C64.5787 155.773 63.9731 155.486 63.3994 155.104C62.6662 154.594 59.9569 151.342 56.7056 146.593C54.1875 143.023 51.3825 138.561 48.8644 133.875C44.7844 126.289 41.4375 118.001 41.4375 111.562C41.4375 102 46.7925 93.0112 51.0638 87.4012C51.5738 92.2462 54.7931 96.2944 59.2237 97.9519C56.6419 101.872 54.1875 106.845 54.1875 111.562C54.1875 115.866 58.2994 125.906 62.6981 133.875C65.5031 138.911 68.4037 143.151 70.4756 144.521Z" fill="#E6E9ED"/>
<path d="M151.406 92.2144C149.239 96.1669 145.063 98.8125 140.25 98.8125C140.059 98.8125 139.899 98.7806 139.74 98.7487L139.835 98.1113C140.122 96.4538 140.25 94.7644 140.25 93.075C140.25 86.5088 138.146 80.1337 134.257 74.8744C136.042 73.9181 138.05 73.3125 140.25 73.3125C145.095 73.3125 149.27 75.99 151.438 79.9744C152.426 81.7913 153 83.8631 153 86.0625C153 88.2937 152.426 90.3975 151.406 92.2144Z" fill="#CCD1D9"/>
<path d="M63.75 93.075C63.75 94.7644 63.8775 96.4538 64.1644 98.1113L64.26 98.7487C64.1006 98.7806 63.9413 98.8125 63.75 98.8125C62.1563 98.8125 60.6263 98.5256 59.2238 97.9519C54.7931 96.2944 51.5738 92.2463 51.0638 87.4012C51.0638 87.3694 51.0638 87.3694 51.0638 87.3694C51.0319 86.9231 51 86.5087 51 86.0625C51 79.0181 56.7056 73.3125 63.75 73.3125C65.9494 73.3125 67.9575 73.9181 69.7425 74.8744C65.8537 80.1337 63.75 86.5088 63.75 93.075Z" fill="#CCD1D9"/>
<path d="M127.5 89.25V102C127.5 105.506 124.631 108.375 121.125 108.375H82.875C79.3687 108.375 76.5 105.506 76.5 102V89.25C76.5 85.7437 79.3687 82.875 82.875 82.875H121.125C124.631 82.875 127.5 85.7437 127.5 89.25Z" fill="#69D6F4"/>
<path d="M149.812 31.875V44.625C149.812 48.1313 146.944 51 143.438 51H137.062V25.5H143.438C146.944 25.5 149.812 28.3687 149.812 31.875Z" fill="#E6E9ED"/>
<path d="M137.062 51V57.375C137.062 64.4194 131.357 70.125 124.312 70.125H79.6875C72.6431 70.125 66.9375 64.4194 66.9375 57.375V51V25.5V19.125C66.9375 12.0806 72.6431 6.375 79.6875 6.375H86.0625L95.625 19.125H108.375L117.938 6.375H124.312C131.357 6.375 137.062 12.0806 137.062 19.125V25.5V51Z" fill="#E6E9ED"/>
<path d="M66.9375 25.5V51H60.5625C57.0562 51 54.1875 48.1313 54.1875 44.625V31.875C54.1875 28.3687 57.0562 25.5 60.5625 25.5H66.9375Z" fill="#E6E9ED"/>
<path d="M117.938 6.375L108.375 19.125H95.625L86.0625 6.375H117.938Z" fill="#B4DD7F"/>
<path d="M117.938 38.25C121.458 38.25 124.312 35.3958 124.312 31.875C124.312 28.3542 121.458 25.5 117.938 25.5C114.417 25.5 111.562 28.3542 111.562 31.875C111.562 35.3958 114.417 38.25 117.938 38.25Z" fill="#838F9B"/>
<path d="M86.0625 38.25C89.5833 38.25 92.4375 35.3958 92.4375 31.875C92.4375 28.3542 89.5833 25.5 86.0625 25.5C82.5417 25.5 79.6875 28.3542 79.6875 31.875C79.6875 35.3958 82.5417 38.25 86.0625 38.25Z" fill="#838F9B"/>
<path d="M200.812 130.688H137.636L142.456 101.777C146.727 101.178 150.437 98.9081 152.927 95.6154C152.952 95.6154 152.975 95.625 153 95.625C172.332 95.625 188.062 79.8947 188.062 60.5625V47.7296C191.91 44.8162 194.438 40.2454 194.438 35.0625V34.5461L191.087 24.4928L185.041 26.5104L188.053 35.5438C187.798 40.5928 183.613 44.625 178.5 44.625C173.387 44.625 169.202 40.5928 168.95 35.5438L171.962 26.5104L165.916 24.4928L162.562 34.5461V35.0625C162.562 40.2486 165.09 44.8194 168.938 47.7296V60.9163C168.938 69.5098 161.947 76.5 153.357 76.5C153.22 76.5 153.08 76.5255 152.943 76.5287C150.032 72.6654 145.449 70.125 140.25 70.125C138.573 70.125 136.922 70.431 135.313 70.9792L134.331 69.6692C137.91 66.7431 140.25 62.3507 140.25 57.375V54.1875H143.438C148.71 54.1875 153 49.8971 153 44.625V31.875C153 26.6029 148.71 22.3125 143.438 22.3125H140.25V19.125C140.25 10.3371 133.1 3.1875 124.312 3.1875H79.6875C70.8996 3.1875 63.75 10.3371 63.75 19.125V22.3125H60.5625C55.2904 22.3125 51 26.6029 51 31.875V44.625C51 49.8971 55.2904 54.1875 60.5625 54.1875H63.75V57.375C63.75 62.3507 66.0896 66.7431 69.6724 69.6692L68.6906 70.9792C67.0777 70.431 65.4266 70.125 63.75 70.125C54.9621 70.125 47.8125 77.2746 47.8125 86.0625C47.8125 86.1773 47.8444 86.2856 47.8476 86.3972C43.3022 92.6128 38.25 101.704 38.25 111.562C38.25 117.217 40.5259 124.035 43.6528 130.688H3.1875V137.062H46.9072C48.1312 139.275 49.4031 141.423 50.6717 143.438H38.25V200.812H165.75V143.438H81.2398C78.8556 142.886 76.3884 142.886 74.0042 143.441C73.4751 142.854 72.9077 142.3 72.2415 141.857C71.1833 141.152 69.7807 139.389 68.2667 137.062H200.812V130.688ZM143.438 28.6875C145.194 28.6875 146.625 30.1187 146.625 31.875V44.625C146.625 46.3813 145.194 47.8125 143.438 47.8125H140.25V28.6875H143.438ZM60.5625 47.8125C58.8062 47.8125 57.375 46.3813 57.375 44.625V31.875C57.375 30.1187 58.8062 28.6875 60.5625 28.6875H63.75V47.8125H60.5625ZM175.312 60.9195V50.6781C176.342 50.8884 177.41 51 178.5 51C179.59 51 180.658 50.8884 181.688 50.6781V60.5625C181.688 75.4067 170.35 87.6531 155.882 89.1034C156.073 88.1184 156.188 87.1048 156.188 86.0625C156.188 84.9182 156.054 83.8057 155.824 82.7284C166.773 81.4948 175.312 72.1905 175.312 60.9195ZM149.812 86.0625C149.812 90.2764 147.059 93.8177 143.355 95.0927C143.393 94.4233 143.438 93.7571 143.438 93.0909C143.438 87.3503 141.917 81.6574 139.141 76.6466C139.51 76.5988 139.877 76.5 140.25 76.5C145.522 76.5 149.812 80.7904 149.812 86.0625ZM111.562 9.5625L106.781 15.9375H97.2188L92.4375 9.5625H111.562ZM70.125 19.125C70.125 13.8529 74.4154 9.5625 79.6875 9.5625H84.4688L94.0312 22.3125H109.969L119.531 9.5625H124.312C129.585 9.5625 133.875 13.8529 133.875 19.125V57.375C133.875 62.6471 129.585 66.9375 124.312 66.9375H79.6875C74.4154 66.9375 70.125 62.6471 70.125 57.375V19.125ZM124.312 73.3125H129.094L131.57 76.6179C131.609 76.6689 131.641 76.7231 131.676 76.7741L131.692 76.7964C135.153 81.4884 137.062 87.261 137.062 93.0909C137.062 94.5954 136.935 96.1127 136.69 97.6044L131.175 130.688H72.8248L67.3104 97.6044C67.065 96.1127 66.9375 94.5954 66.9375 93.0909C66.9375 88.0324 68.3783 83.0184 71.0175 78.7153L72.4551 76.5829L74.9062 73.3125H79.6875H124.312ZM63.75 76.5C64.1229 76.5 64.4895 76.5988 64.8624 76.6466C62.0829 81.6574 60.5625 87.3471 60.5625 93.0909C60.5625 93.7476 60.6071 94.4074 60.6454 95.064C56.9001 93.7667 54.1875 90.2413 54.1875 86.0625C54.1875 80.7904 58.4779 76.5 63.75 76.5ZM84.0416 151.814L88.3001 160.334L92.4375 158.266V162.562H98.8125V156.188H93.3555L90.168 149.812H159.375V194.438H44.625V149.812H54.9557C56.9383 152.586 58.6914 154.779 59.9824 156.188H54.1875V162.562H60.5625V156.806C60.9896 157.239 61.3657 157.59 61.6271 157.765C61.6813 157.8 61.7419 157.826 61.7961 157.861C61.506 162.285 62.9818 166.805 66.3542 170.181L66.7207 170.547L76.2004 175.287L79.0532 169.585L70.533 165.326C67.1415 161.578 67.2499 155.764 70.8645 152.149C74.4791 148.531 80.2931 148.423 84.0416 151.814ZM66.3574 147.639C65.3438 148.652 64.5564 149.797 63.8711 150.986C58.8413 144.917 44.625 124.128 44.625 111.562C44.625 105.321 47.2101 99.2747 50.1968 94.3404C51.3793 96.2721 52.9221 97.9551 54.7899 99.2301C52.3164 103.68 51 107.83 51 111.562C51 119.416 61.5379 140.942 67.8236 146.443C67.3264 146.832 66.8132 147.183 66.3574 147.639ZM57.375 111.562C57.375 108.796 58.5671 105.401 60.7187 101.694C60.9864 101.745 61.2733 101.739 61.5443 101.777L66.3638 130.688H64.5724C60.8079 123.535 57.375 115.059 57.375 111.562Z" fill="black"/>
<path d="M54.1875 181.688H60.5625V188.062H54.1875V181.688Z" fill="black"/>
<path d="M66.9375 181.688H73.3125V188.062H66.9375V181.688Z" fill="black"/>
<path d="M130.688 181.688H137.062V188.062H130.688V181.688Z" fill="black"/>
<path d="M117.938 181.688H124.312V188.062H117.938V181.688Z" fill="black"/>
<path d="M92.4375 181.688H98.8125V188.062H92.4375V181.688Z" fill="black"/>
<path d="M79.6875 181.688H86.0625V188.062H79.6875V181.688Z" fill="black"/>
<path d="M105.188 181.688H111.562V188.062H105.188V181.688Z" fill="black"/>
<path d="M143.438 181.688H149.812V188.062H143.438V181.688Z" fill="black"/>
<path d="M54.1875 168.938H60.5625V175.312H54.1875V168.938Z" fill="black"/>
<path d="M92.4375 168.938H98.8125V175.312H92.4375V168.938Z" fill="black"/>
<path d="M79.6875 168.938H86.0625V175.312H79.6875V168.938Z" fill="black"/>
<path d="M143.438 168.938H149.812V175.312H143.438V168.938Z" fill="black"/>
<path d="M117.938 168.938H124.312V175.312H117.938V168.938Z" fill="black"/>
<path d="M105.188 168.938H111.562V175.312H105.188V168.938Z" fill="black"/>
<path d="M130.688 168.938H137.062V175.312H130.688V168.938Z" fill="black"/>
<path d="M105.188 156.188H111.562V162.562H105.188V156.188Z" fill="black"/>
<path d="M130.688 156.188H137.062V162.562H130.688V156.188Z" fill="black"/>
<path d="M117.938 156.188H124.312V162.562H117.938V156.188Z" fill="black"/>
<path d="M143.438 156.188H149.812V162.562H143.438V156.188Z" fill="black"/>
<path d="M117.938 41.4375C123.21 41.4375 127.5 37.1471 127.5 31.875C127.5 26.6029 123.21 22.3125 117.938 22.3125C112.665 22.3125 108.375 26.6029 108.375 31.875C108.375 37.1471 112.665 41.4375 117.938 41.4375ZM117.938 28.6875C119.694 28.6875 121.125 30.1187 121.125 31.875C121.125 33.6313 119.694 35.0625 117.938 35.0625C116.181 35.0625 114.75 33.6313 114.75 31.875C114.75 30.1187 116.181 28.6875 117.938 28.6875Z" fill="black"/>
<path d="M86.0625 41.4375C91.3346 41.4375 95.625 37.1471 95.625 31.875C95.625 26.6029 91.3346 22.3125 86.0625 22.3125C80.7904 22.3125 76.5 26.6029 76.5 31.875C76.5 37.1471 80.7904 41.4375 86.0625 41.4375ZM86.0625 28.6875C87.8188 28.6875 89.25 30.1187 89.25 31.875C89.25 33.6313 87.8188 35.0625 86.0625 35.0625C84.3062 35.0625 82.875 33.6313 82.875 31.875C82.875 30.1187 84.3062 28.6875 86.0625 28.6875Z" fill="black"/>
<path d="M114.664 54.1875L89.25 54.1014V47.8125H82.875V54.1014C82.875 57.6619 85.7756 60.5625 89.3361 60.5625H114.661C118.224 60.5625 121.125 57.6619 121.125 54.1014V47.8125H114.75L114.664 54.1875Z" fill="black"/>
<path d="M73.3125 102C73.3125 107.272 77.6029 111.562 82.875 111.562H121.125C126.397 111.562 130.688 107.272 130.688 102V89.25C130.688 83.9779 126.397 79.6875 121.125 79.6875H82.875C77.6029 79.6875 73.3125 83.9779 73.3125 89.25V102ZM79.6875 89.25C79.6875 87.4937 81.1187 86.0625 82.875 86.0625H121.125C122.881 86.0625 124.312 87.4937 124.312 89.25V102C124.312 103.756 122.881 105.188 121.125 105.188H82.875C81.1187 105.188 79.6875 103.756 79.6875 102V89.25Z" fill="black"/>
<path d="M117.938 117.938H124.312V124.312H117.938V117.938Z" fill="black"/>
<path d="M105.188 117.938H111.562V124.312H105.188V117.938Z" fill="black"/>
<path d="M79.6875 117.938H86.0625V124.312H79.6875V117.938Z" fill="black"/>
<path d="M92.4375 117.938H98.8125V124.312H92.4375V117.938Z" fill="black"/>
</svg>
