<svg width="150" height="150" viewBox="0 0 150 150" fill="none" xmlns="http://www.w3.org/2000/svg">
<path d="M39.8441 70.3133V62.3343C39.8441 61.5662 40.3763 60.9387 41.0255 60.9387H55.0689C55.7188 60.9387 56.2503 61.581 56.2503 62.3343V70.3133" fill="#2A8EE6"/>
<path d="M56.25 72.6572C54.9557 72.6572 53.9062 71.6076 53.9062 70.3133V63.2822H42.1877V70.3133C42.1877 71.6076 41.1381 72.6572 39.8438 72.6572C38.5495 72.6572 37.5 71.6076 37.5 70.3133V62.3343C37.5 60.2723 39.0813 58.5948 41.0249 58.5948H55.0683C57.0118 58.5948 58.5931 60.2723 58.5931 62.3343V70.3133C58.5938 71.6076 57.5443 72.6572 56.25 72.6572Z" fill="black"/>
<path d="M14.063 70.3133V62.3343C14.063 61.5662 14.5944 60.9387 15.2447 60.9387H29.2885C29.9377 60.9387 30.4698 61.581 30.4698 62.3343V70.3133" fill="#2A8EE6"/>
<path d="M30.4692 72.6572C29.1749 72.6572 28.1254 71.6076 28.1254 70.3133V63.2822H16.4069V70.3133C16.4069 71.6076 15.3574 72.6572 14.0631 72.6572C12.7688 72.6572 11.7192 71.6076 11.7192 70.3133V62.3343C11.7192 60.2723 13.3006 58.5948 15.2448 58.5948H29.2886C31.2321 58.5948 32.8134 60.2723 32.8134 62.3343V70.3133C32.8131 71.6076 31.7635 72.6572 30.4692 72.6572Z" fill="black"/>
<path d="M67.9684 70.3133V62.3343C67.9684 61.5662 68.5005 60.9387 69.1497 60.9387H83.1939C83.8431 60.9387 84.3752 61.581 84.3752 62.3343V70.3133" fill="#2A8EE6"/>
<path d="M84.3747 72.6572C83.0804 72.6572 82.0309 71.6076 82.0309 70.3133V63.2822H70.3124V70.3133C70.3124 71.6076 69.2629 72.6572 67.9686 72.6572C66.6743 72.6572 65.6248 71.6076 65.6248 70.3133V62.3343C65.6248 60.2723 67.2061 58.5948 69.1496 58.5948H83.1937C85.1373 58.5948 86.7186 60.2723 86.7186 62.3343V70.3133C86.7186 71.6076 85.6691 72.6572 84.3747 72.6572Z" fill="black"/>
<path d="M121.874 112.5V104.521C121.874 103.753 122.406 103.126 123.056 103.126H137.099C137.749 103.126 138.281 103.767 138.281 104.521V112.5" fill="#FBAD4A"/>
<path d="M138.28 114.844C136.986 114.844 135.936 113.795 135.936 112.5V105.469H124.218V112.5C124.218 113.795 123.168 114.844 121.874 114.844C120.58 114.844 119.53 113.795 119.53 112.5V104.521C119.53 102.459 121.111 100.782 123.056 100.782H137.099C139.042 100.782 140.624 102.459 140.624 104.521V112.5C140.624 113.795 139.575 114.844 138.28 114.844Z" fill="black"/>
<path d="M58.3807 112.5H145.525C146.698 112.5 147.655 113.461 147.655 114.645V145.511C147.655 146.691 146.698 147.656 145.525 147.656H58.3807C57.2075 147.656 56.2504 146.691 56.2504 145.511V114.645C56.25 113.462 57.2075 112.5 58.3807 112.5Z" fill="#FEDA4F"/>
<path d="M145.525 150H58.38C55.9133 150 53.9059 147.986 53.9059 145.512V114.645C53.9059 112.17 55.9126 110.157 58.38 110.157H145.525C147.992 110.157 149.999 112.171 149.999 114.645V145.512C149.999 147.987 147.992 150 145.525 150ZM58.5939 145.312H145.312V114.844H58.5939V145.312ZM145.525 114.844H145.548H145.525Z" fill="black"/>
<path d="M4.4749 70.3134H91.6198C92.7922 70.3134 93.7497 71.275 93.7497 72.4584V103.324C93.7497 104.504 92.7922 105.469 91.6198 105.469H4.4749C3.30178 105.469 2.3446 104.504 2.3446 103.324V72.4584C2.3446 71.275 3.30212 70.3134 4.4749 70.3134Z" fill="#2BBBE9"/>
<path d="M91.619 107.813H4.47447C2.00738 107.813 0 105.799 0 103.325V72.4587C0 69.9838 2.0067 67.9698 4.47413 67.9698H91.619C94.0858 67.9698 96.0925 69.9838 96.0925 72.4587V103.325C96.0932 105.8 94.0858 107.813 91.619 107.813ZM4.68801 103.125H91.4058V72.6568H4.68801V103.125ZM91.619 72.6572H91.6424H91.619Z" fill="black"/>
<path d="M4.41842 112.5H44.7996C45.9421 112.5 46.8742 113.467 46.8742 114.645V145.511C46.8742 146.686 45.9363 147.656 44.7996 147.656H4.41842C3.28238 147.656 2.34375 146.691 2.34375 145.511V114.645C2.34444 113.462 3.27655 112.5 4.41842 112.5Z" fill="#FBAD4A"/>
<path d="M44.8004 150H4.41924C1.98305 150 0.000732422 147.986 0.000732422 145.512V114.645C0.000732422 112.17 1.98305 110.157 4.41924 110.157H44.8004C47.2366 110.157 49.2189 112.171 49.2189 114.645V145.512C49.2189 147.987 47.2369 150 44.8004 150ZM4.68806 145.312H44.5312V114.844H4.68806V145.312ZM44.8004 114.844H44.8237H44.8004Z" fill="black"/>
<path d="M102.827 24.046L106.684 17.1391C107.055 16.4734 107.836 16.2156 108.417 16.5613L121.003 24.0693C121.584 24.4185 121.748 25.2565 121.385 25.9092L117.526 32.8137" fill="#ED5481"/>
<path d="M117.522 35.1582C117.135 35.1582 116.743 35.062 116.381 34.8598C115.251 34.2281 114.847 32.8003 115.479 31.6707L118.902 25.5459L108.229 19.1788L104.872 25.1885C104.241 26.3188 102.813 26.7232 101.684 26.0922C100.554 25.4611 100.149 24.0333 100.78 22.9034L104.637 15.9959C105.133 15.1053 105.97 14.4454 106.932 14.1866C107.853 13.938 108.806 14.0657 109.613 14.5464L122.202 22.0561C123.86 23.0521 124.409 25.2891 123.433 27.0469L119.57 33.9569C119.141 34.7252 118.345 35.1582 117.522 35.1582Z" fill="black"/>
<path d="M79.389 9.98127L83.2486 3.07713C83.6208 2.41212 84.397 2.1512 84.9817 2.50001L97.5647 10.008C98.1459 10.3538 98.31 11.1939 97.9471 11.8448L94.0879 18.752" fill="#ED5481"/>
<path d="M94.0847 21.0959C93.6981 21.0959 93.3053 20.9997 92.9438 20.7975C91.8136 20.1658 91.4099 18.7379 92.0409 17.6084L95.4634 11.4843L84.7931 5.11712L81.4351 11.1245C80.8034 12.2547 79.3748 12.6585 78.246 12.0268C77.1165 11.395 76.712 9.96719 77.3437 8.83767L81.2026 1.93353C81.7025 1.03987 82.5409 0.380358 83.5025 0.122526C84.4223 -0.124664 85.3733 0.00545393 86.1814 0.486443L98.7655 7.99516C100.425 8.98255 100.978 11.222 99.9942 12.986L96.1336 19.8946C95.7041 20.6629 94.9069 21.0959 94.0847 21.0959ZM96.3633 12.0209C96.3643 12.0216 96.365 12.0219 96.3664 12.0226L96.3633 12.0209Z" fill="black"/>
<path d="M126.264 38.1077L130.121 31.2008C130.492 30.5358 131.272 30.2773 131.854 30.6237L144.437 38.1317C145.021 38.4802 145.185 39.3182 144.82 39.9723L140.963 46.8767" fill="#ED5481"/>
<path d="M140.96 49.2205C140.574 49.2205 140.181 49.1244 139.82 48.9229C138.689 48.2912 138.285 46.864 138.916 45.7338L142.337 39.609L131.666 33.2411L128.31 39.2509C127.679 40.3818 126.25 40.7848 125.121 40.1545C123.991 39.5235 123.586 38.0956 124.217 36.9658L128.075 30.0589C128.572 29.1676 129.409 28.5078 130.371 28.2489C131.293 28.0017 132.244 28.1294 133.051 28.6094L145.637 36.1192C147.3 37.111 147.851 39.3536 146.864 41.1165L143.008 48.0193C142.58 48.7876 141.782 49.2205 140.96 49.2205Z" fill="black"/>
<path d="M72.1735 7.3113L146.607 49.8728C147.608 50.4458 147.953 51.7244 147.374 52.7169L132.258 78.6491C131.68 79.6417 130.389 79.9826 129.389 79.4127L54.9564 36.848C53.9546 36.2757 53.6071 34.9958 54.1884 34.0067L69.3047 8.07244C69.8828 7.07922 71.1737 6.7383 72.1735 7.3113Z" fill="#F87EA1"/>
<path d="M130.427 82.0315C129.679 82.0315 128.921 81.844 128.229 81.4485L53.7926 38.8822C52.7578 38.291 52.0183 37.3307 51.7114 36.1785C51.4061 35.0325 51.5679 33.8395 52.1666 32.8195L67.2788 6.8921C68.5041 4.78962 71.2215 4.06453 73.3384 5.27782L147.769 47.8387C148.802 48.4288 149.539 49.386 149.847 50.5344C150.154 51.6804 149.995 52.8751 149.398 53.8982L134.282 79.8298C133.461 81.2405 131.963 82.0308 130.427 82.0315ZM56.3527 34.9467L130.353 77.2638L145.21 51.7748L71.2084 9.45909L56.3527 34.9467ZM145.443 51.9077H145.467H145.443ZM71.0086 9.34511H71.0093H71.0086Z" fill="black"/>
</svg>
