<svg width="194" height="194" viewBox="0 0 194 194" fill="none" xmlns="http://www.w3.org/2000/svg">
<g clip-path="url(#clip0)">
<path d="M6.09055 115.419C13.1863 139.67 33.6397 189.14 68.2016 184.7C102.866 180.246 89.329 135.546 121.062 129.42C135.031 126.723 144.5 150.899 158.5 150.147C176.532 149.178 185.71 131.33 190.748 116.325C201.432 84.5086 185.433 30.5584 147.986 21.215C115.307 13.0613 111.485 52.9882 83.0707 41.391C67.1001 34.8727 68.6957 15.4071 49.2449 11.4794C-9.59882 -0.403137 -3.35141 83.1495 6.09055 115.419Z" fill="url(#paint0_linear)"/>
<path opacity="0.1" d="M172.58 171.971H21.4194C18.2806 171.971 15.7358 169.427 15.7358 166.288V47.2106C15.7358 44.0717 18.2806 41.527 21.4194 41.527H172.58C175.719 41.527 178.264 44.0717 178.264 47.2106V166.288C178.264 169.427 175.72 171.971 172.58 171.971Z" fill="#2626BC"/>
<path d="M178.264 38.1179V157.193C178.264 160.334 175.718 162.877 172.58 162.877H21.4194C18.2821 162.877 15.7358 160.334 15.7358 157.193V38.1179C15.7358 34.9768 18.2821 32.4343 21.4194 32.4343H172.58C175.718 32.4343 178.264 34.9768 178.264 38.1179Z" fill="white"/>
<path d="M178.264 77.4219V157.193C178.264 160.334 175.718 162.877 172.581 162.877H29.9868C36.144 152.729 49.1481 138.608 73.6823 139.021C111.876 139.661 94.8063 88.2396 128.946 91.8658C161.899 95.3707 155.882 71.2343 178.264 77.4219Z" fill="#8399FE"/>
<path d="M154.416 100.357C154.416 110.205 146.432 118.185 136.584 118.185C126.736 118.185 118.753 110.205 118.753 100.357C118.753 97.4129 119.469 94.6317 120.735 92.184C123.095 91.6649 125.804 91.5323 128.946 91.8657C139.096 92.9456 145.549 91.4035 150.274 88.9292C152.858 92.0249 154.416 96.011 154.416 100.357Z" fill="#6583FE"/>
<path d="M66.502 162.878H29.8853V130.1C29.8853 129.054 30.7336 128.206 31.7798 128.206H64.6075C65.6536 128.206 66.502 129.054 66.502 130.1V162.878Z" fill="#D2DEFF"/>
<path d="M115.309 162.878H78.6919V130.1C78.6919 129.054 79.5403 128.206 80.5864 128.206H113.414C114.46 128.206 115.309 129.054 115.309 130.1V162.878Z" fill="#D2DEFF"/>
<path d="M164.115 162.878H127.498V130.1C127.498 129.054 128.346 128.206 129.393 128.206H162.22C163.266 128.206 164.115 129.054 164.115 130.1V162.878Z" fill="#D2DEFF"/>
<path d="M178.264 58.6964V38.1168C178.264 34.978 175.719 32.4332 172.58 32.4332H21.4194C18.2806 32.4332 15.7358 34.978 15.7358 38.1168V58.6964H178.264Z" fill="#01ECA5"/>
<path d="M172.58 164.772H21.4194C17.2409 164.772 13.8413 161.373 13.8413 157.194V38.1168C13.8413 33.9382 17.2409 30.5387 21.4194 30.5387H172.58C176.759 30.5387 180.158 33.9382 180.158 38.1168V157.194C180.158 161.373 176.759 164.772 172.58 164.772ZM21.4194 34.3278C19.3301 34.3278 17.6304 36.0275 17.6304 38.1168V157.194C17.6304 159.283 19.3301 160.983 21.4194 160.983H172.58C174.67 160.983 176.369 159.283 176.369 157.194V38.1168C176.369 36.0275 174.67 34.3278 172.58 34.3278H21.4194Z" fill="#2626BC"/>
<path d="M32.443 50.5457C34.7241 50.5457 36.5734 48.6964 36.5734 46.4152C36.5734 44.1341 34.7241 42.2848 32.443 42.2848C30.1618 42.2848 28.3125 44.1341 28.3125 46.4152C28.3125 48.6964 30.1618 50.5457 32.443 50.5457Z" fill="#FF5BA8"/>
<path d="M45.6295 50.5457C47.9107 50.5457 49.7599 48.6964 49.7599 46.4152C49.7599 44.1341 47.9107 42.2848 45.6295 42.2848C43.3483 42.2848 41.499 44.1341 41.499 46.4152C41.499 48.6964 43.3483 50.5457 45.6295 50.5457Z" fill="white"/>
<path d="M58.815 50.5457C61.0962 50.5457 62.9455 48.6964 62.9455 46.4152C62.9455 44.1341 61.0962 42.2848 58.815 42.2848C56.5338 42.2848 54.6846 44.1341 54.6846 46.4152C54.6846 48.6964 56.5338 50.5457 58.815 50.5457Z" fill="#97FFD2"/>
<path d="M163.792 51.0557H112.201V41.7744H163.793C164.839 41.7744 165.687 42.6228 165.687 43.6689V49.1616C165.687 50.2077 164.839 51.0557 163.792 51.0557Z" fill="#DCFDEE"/>
<path d="M112.455 41.8922C110.452 39.8893 107.193 39.8893 105.19 41.8922C103.187 43.8951 103.187 47.1541 105.19 49.1569C106.72 50.6866 108.98 51.0439 110.856 50.2376L112.503 51.8851C113.243 52.6247 114.443 52.6247 115.183 51.8851C115.922 51.1455 115.922 49.9455 115.183 49.2058L113.535 47.5583C114.342 45.6824 113.985 43.4218 112.455 41.8922ZM107.869 44.5714C108.395 44.0459 109.25 44.0459 109.776 44.5714C110.301 45.097 110.301 45.9522 109.776 46.4777C109.25 47.0033 108.395 47.0033 107.869 46.4777C107.344 45.9522 107.344 45.097 107.869 44.5714Z" fill="white"/>
<path d="M48.1935 144.405C50.5502 144.405 52.4608 142.494 52.4608 140.138C52.4608 137.781 50.5502 135.87 48.1935 135.87C45.8368 135.87 43.9263 137.781 43.9263 140.138C43.9263 142.494 45.8368 144.405 48.1935 144.405Z" fill="white"/>
<path d="M55.5217 149.716H40.8652C39.8191 149.716 38.9707 150.564 38.9707 151.61C38.9707 152.656 39.8191 153.505 40.8652 153.505H55.5217C56.5679 153.505 57.4162 152.656 57.4162 151.61C57.4162 150.564 56.5683 149.716 55.5217 149.716Z" fill="#8399FE"/>
<path d="M96.9997 144.405C99.3564 144.405 101.267 142.494 101.267 140.138C101.267 137.781 99.3564 135.87 96.9997 135.87C94.6429 135.87 92.7324 137.781 92.7324 140.138C92.7324 142.494 94.6429 144.405 96.9997 144.405Z" fill="white"/>
<path d="M104.328 149.716H89.6719C88.6257 149.716 87.7773 150.564 87.7773 151.61C87.7773 152.656 88.6257 153.505 89.6719 153.505H104.328C105.375 153.505 106.223 152.656 106.223 151.61C106.223 150.564 105.374 149.716 104.328 149.716Z" fill="#8399FE"/>
<path d="M145.806 144.405C148.163 144.405 150.074 142.494 150.074 140.138C150.074 137.781 148.163 135.87 145.806 135.87C143.45 135.87 141.539 137.781 141.539 140.138C141.539 142.494 143.45 144.405 145.806 144.405Z" fill="white"/>
<path d="M153.134 149.716H138.478C137.432 149.716 136.583 150.564 136.583 151.61C136.583 152.656 137.432 153.505 138.478 153.505H153.134C154.181 153.505 155.029 152.656 155.029 151.61C155.029 150.564 154.181 149.716 153.134 149.716Z" fill="#8399FE"/>
<path d="M89.7447 119.261H37.7925C35.6998 119.261 34.0034 117.565 34.0034 115.472V113.271C34.0034 111.178 35.6998 109.481 37.7925 109.481H89.7443C91.837 109.481 93.5334 111.178 93.5334 113.271V115.472C93.5338 117.565 91.837 119.261 89.7447 119.261Z" fill="#FF7EB8"/>
<path d="M75.5622 96.5669H35.8979C34.8518 96.5669 34.0034 97.4153 34.0034 98.4614C34.0034 99.5076 34.8518 100.356 35.8979 100.356H75.5622C76.6084 100.356 77.4568 99.5076 77.4568 98.4614C77.4568 97.4153 76.6084 96.5669 75.5622 96.5669Z" fill="#8399FE"/>
<path d="M66.4685 89.2059H35.8979C34.8518 89.2059 34.0034 90.0543 34.0034 91.1005C34.0034 92.1466 34.8518 92.995 35.8979 92.995H66.4685C67.5146 92.995 68.363 92.1466 68.363 91.1005C68.363 90.0543 67.5146 89.2059 66.4685 89.2059Z" fill="#8399FE"/>
<path d="M40.324 80.36H35.8979C34.8518 80.36 34.0034 81.2084 34.0034 82.2545C34.0034 83.3007 34.8518 84.149 35.8979 84.149H40.324C41.3701 84.149 42.2185 83.3007 42.2185 82.2545C42.2185 81.2084 41.3701 80.36 40.324 80.36Z" fill="#FF7EB8"/>
<path d="M63.0583 67.4457H35.8979C34.8518 67.4457 34.0034 68.294 34.0034 69.3402C34.0034 70.3864 34.8518 71.2347 35.8979 71.2347H63.0583C64.1045 71.2347 64.9529 70.3864 64.9529 69.3402C64.9529 68.294 64.1045 67.4457 63.0583 67.4457Z" fill="#02FFB3"/>
<path d="M136.584 111.257C146.432 111.257 154.415 103.274 154.415 93.4269C154.415 83.5793 146.432 75.5963 136.584 75.5963C126.736 75.5963 118.753 83.5793 118.753 93.4269C118.753 103.274 126.736 111.257 136.584 111.257Z" fill="#02FFB3"/>
<path d="M141.598 106.713C142.645 106.713 143.493 105.864 143.493 104.818C143.493 103.771 142.645 102.922 141.598 102.922C140.551 102.922 139.703 103.771 139.703 104.818C139.703 105.864 140.551 106.713 141.598 106.713Z" fill="white"/>
<path d="M150.346 106.713C151.393 106.713 152.241 105.864 152.241 104.818C152.241 103.771 151.393 102.922 150.346 102.922C149.299 102.922 148.451 103.771 148.451 104.818C148.451 105.864 149.299 106.713 150.346 106.713Z" fill="white"/>
<path d="M159.094 106.713C160.141 106.713 160.989 105.864 160.989 104.818C160.989 103.771 160.141 102.922 159.094 102.922C158.047 102.922 157.199 103.771 157.199 104.818C157.199 105.864 158.047 106.713 159.094 106.713Z" fill="white"/>
<path d="M145.972 99.6717C147.019 99.6717 147.867 98.8231 147.867 97.7764C147.867 96.7297 147.019 95.8811 145.972 95.8811C144.925 95.8811 144.077 96.7297 144.077 97.7764C144.077 98.8231 144.925 99.6717 145.972 99.6717Z" fill="white"/>
<path d="M154.72 99.6717C155.767 99.6717 156.616 98.8231 156.616 97.7764C156.616 96.7297 155.767 95.8811 154.72 95.8811C153.674 95.8811 152.825 96.7297 152.825 97.7764C152.825 98.8231 153.674 99.6717 154.72 99.6717Z" fill="white"/>
<path d="M145.972 113.754C147.019 113.754 147.867 112.906 147.867 111.859C147.867 110.812 147.019 109.964 145.972 109.964C144.925 109.964 144.077 110.812 144.077 111.859C144.077 112.906 144.925 113.754 145.972 113.754Z" fill="white"/>
<path d="M154.72 113.754C155.767 113.754 156.616 112.906 156.616 111.859C156.616 110.812 155.767 109.964 154.72 109.964C153.674 109.964 152.825 110.812 152.825 111.859C152.825 112.906 153.674 113.754 154.72 113.754Z" fill="white"/>
<path d="M169.949 22.6936C166.963 22.6936 164.533 20.2644 164.533 17.2782C164.533 14.2924 166.962 11.8633 169.949 11.8633C172.935 11.8633 175.364 14.2924 175.364 17.2782C175.363 20.2644 172.934 22.6936 169.949 22.6936ZM169.949 15.6523C169.052 15.6523 168.322 16.3817 168.322 17.2782C168.322 18.1747 169.052 18.9045 169.949 18.9045C170.845 18.9045 171.575 18.1747 171.575 17.2782C171.575 16.3817 170.845 15.6523 169.949 15.6523Z" fill="#FF5BA8"/>
<path d="M38.1111 186.321C35.1253 186.321 32.6958 183.892 32.6958 180.906C32.6958 177.92 35.125 175.491 38.1111 175.491C41.0973 175.491 43.5265 177.92 43.5265 180.906C43.5261 183.892 41.0969 186.321 38.1111 186.321ZM38.1111 179.28C37.2146 179.28 36.4849 180.01 36.4849 180.906C36.4849 181.803 37.2143 182.532 38.1111 182.532C39.008 182.532 39.7374 181.803 39.7374 180.906C39.7374 180.01 39.0076 179.28 38.1111 179.28Z" fill="#6583FE"/>
<path d="M56.764 186.321C53.7782 186.321 51.3486 183.892 51.3486 180.906C51.3486 177.92 53.7778 175.491 56.764 175.491C59.7501 175.491 62.1793 177.92 62.1793 180.906C62.1793 183.892 59.7497 186.321 56.764 186.321ZM56.764 179.28C55.8675 179.28 55.1377 180.01 55.1377 180.906C55.1377 181.803 55.8671 182.532 56.764 182.532C57.6608 182.532 58.3902 181.803 58.3902 180.906C58.3902 180.01 57.6604 179.28 56.764 179.28Z" fill="#01ECA5"/>
<path d="M91.8418 19.804C90.7956 19.804 89.9473 18.956 89.9473 17.9094C89.9473 16.6556 88.9276 15.636 87.6738 15.636C86.6277 15.636 85.7793 14.788 85.7793 13.7415C85.7793 12.6949 86.6277 11.8469 87.6738 11.8469C88.9276 11.8469 89.9473 10.8273 89.9473 9.57349C89.9473 8.52695 90.7956 7.67896 91.8418 7.67896C92.888 7.67896 93.7363 8.52695 93.7363 9.57349C93.7363 10.8273 94.756 11.8469 96.0098 11.8469C97.0559 11.8469 97.9043 12.6949 97.9043 13.7415C97.9043 14.788 97.0559 15.636 96.0098 15.636C94.756 15.636 93.7363 16.6556 93.7363 17.9094C93.7363 18.956 92.888 19.804 91.8418 19.804Z" fill="#01ECA5"/>
<path d="M109.253 24.4611C108.207 24.4611 107.359 23.6131 107.359 22.5665C107.359 21.3127 106.339 20.2931 105.085 20.2931C104.039 20.2931 103.191 19.4451 103.191 18.3986C103.191 17.352 104.039 16.504 105.085 16.504C106.339 16.504 107.359 15.4844 107.359 14.2306C107.359 13.1841 108.207 12.3361 109.253 12.3361C110.3 12.3361 111.148 13.1841 111.148 14.2306C111.148 15.4844 112.168 16.504 113.421 16.504C114.468 16.504 115.316 17.352 115.316 18.3986C115.316 19.4451 114.468 20.2931 113.421 20.2931C112.168 20.2931 111.148 21.3127 111.148 22.5665C111.148 23.6131 110.3 24.4611 109.253 24.4611Z" fill="#FF5BA8"/>
</g>
<defs>
<linearGradient id="paint0_linear" x1="9.02594" y1="130.722" x2="174.119" y2="35.4054" gradientUnits="userSpaceOnUse">
<stop stop-color="#DCFDEE" stop-opacity="0"/>
<stop offset="0.6288" stop-color="#D2F3E4"/>
</linearGradient>
<clipPath id="clip0">
<rect width="194" height="194" fill="white"/>
</clipPath>
</defs>
</svg>
