<svg width="130" height="130" viewBox="0 0 130 130" fill="none" xmlns="http://www.w3.org/2000/svg">
<g clip-path="url(#clip0)">
<path d="M65.0001 130C100.899 130 130 100.899 130 65.0001C130 29.1016 100.899 0 65.0001 0C29.1016 0 0 29.1016 0 65.0001C0 100.899 29.1016 130 65.0001 130Z" fill="#FBBD5E"/>
<path d="M92.0158 50.3751H87.9532V54.4376H92.0158V50.3751Z" fill="#183651"/>
<path d="M104.406 50.3751H100.344V54.4376H104.406V50.3751Z" fill="#183651"/>
<path d="M116.594 50.3751H112.531V54.4376H116.594V50.3751Z" fill="#183651"/>
<path d="M17.4689 75.5626H13.4064V79.6251H17.4689V75.5626Z" fill="#183651"/>
<path d="M29.6563 75.5626H25.5938V79.6251H29.6563V75.5626Z" fill="#183651"/>
<path d="M42.0468 75.5626H37.9843V79.6251H42.0468V75.5626Z" fill="#183651"/>
<path d="M37.7813 16.8593L34.9375 14.0157L38.5939 10.1564L34.9375 6.29676L37.7813 3.45319L44.4845 10.1564L37.7813 16.8593Z" fill="#183651"/>
<path d="M41.4375 8.12506H28.8438V12.1876H41.4375V8.12506Z" fill="#183651"/>
<path d="M78.4062 111.516H51.5938V127.969H78.4062V111.516Z" fill="#4FBF9F"/>
<path d="M78.4062 130H51.5938C50.3751 130 49.5625 129.187 49.5625 127.969V111.516C49.5625 110.297 50.3751 109.484 51.5938 109.484H78.4062C79.6249 109.484 80.4375 110.297 80.4375 111.516V127.969C80.4375 129.187 79.6249 130 78.4062 130ZM53.625 125.937H76.3752V113.547H53.625V125.937Z" fill="#183651"/>
<path d="M78.4062 84.0939H51.5938V100.547H78.4062V84.0939Z" fill="#E0E4E8"/>
<path d="M78.4062 102.578H51.5938C50.3751 102.578 49.5625 101.766 49.5625 100.547V84.0938C49.5625 82.8751 50.3751 82.0626 51.5938 82.0626H78.4062C79.6249 82.0626 80.4375 82.8751 80.4375 84.0938V100.547C80.4375 101.766 79.6249 102.578 78.4062 102.578ZM53.625 98.5157H76.3752V86.1251H53.625V98.5157Z" fill="#183651"/>
<path d="M78.4062 56.8751H51.5938V73.3281H78.4062V56.8751Z" fill="#4FBF9F"/>
<path d="M78.4062 75.1562H51.5938C50.3751 75.1562 49.5625 74.3436 49.5625 73.1249V56.6718C49.5625 55.4531 50.3751 54.6406 51.5938 54.6406H78.4062C79.6249 54.6406 80.4375 55.4531 80.4375 56.6718V73.1249C80.4375 74.3436 79.6249 75.1562 78.4062 75.1562ZM53.625 71.0937H76.3752V58.7031H53.625V71.0937Z" fill="#183651"/>
<path d="M78.4062 29.4531H51.5938V45.9062H78.4062V29.4531Z" fill="#E0E4E8"/>
<path d="M78.4062 47.9374H51.5938C50.3751 47.9374 49.5625 47.1249 49.5625 45.9061V29.453C49.5625 28.2343 50.3751 27.4218 51.5938 27.4218H78.4062C79.6249 27.4218 80.4375 28.2343 80.4375 29.453V45.9061C80.4375 46.9219 79.6249 47.9374 78.4062 47.9374ZM53.625 43.8751H76.3752V31.4846H53.625V43.8751Z" fill="#183651"/>
<path d="M78.4062 2.03125H51.5938V18.4844H78.4062V2.03125Z" fill="#4FBF9F"/>
<path d="M78.4062 20.5156H51.5938C50.3751 20.5156 49.5625 19.7031 49.5625 18.4844V2.03127C49.5625 0.81256 50.3751 0 51.5938 0H78.4062C79.6249 0 80.4375 0.81256 80.4375 2.03127V18.4844C80.4375 19.4999 79.6249 20.5156 78.4062 20.5156ZM53.625 16.4531H76.3752V4.06254H53.625V16.4531Z" fill="#183651"/>
<path d="M87.3438 125.735L84.5 122.891L88.1561 119.234L84.5 115.375L87.3438 112.531L93.8438 119.234L87.3438 125.735Z" fill="#183651"/>
<path d="M90.9999 117.203H78.4061V121.266H90.9999V117.203Z" fill="#183651"/>
<path d="M39.4062 124.922L36.3594 122.078L40.2187 118.219L36.3594 114.359L39.4062 111.516L45.9061 118.219L39.4062 124.922Z" fill="#183651"/>
<path d="M42.8593 120.25H16.4531C8.12504 120.25 1.42188 113.547 1.42188 105.219C1.42188 96.8908 8.32825 90.3906 16.6563 90.3906H51.5938V94.4532H16.6563C10.5625 94.4532 5.68762 99.3283 5.68762 105.422C5.68762 111.515 10.5627 116.39 16.6563 116.39H43.0625V120.25H42.8593V120.25Z" fill="#183651"/>
<path d="M39.4062 70.0782L36.3594 67.2344L40.2187 63.5782L36.3594 59.7189L39.4062 56.8751L45.9061 63.5782L39.4062 70.0782Z" fill="#183651"/>
<path d="M42.8593 65.6094H16.4531C8.12504 65.6094 1.42188 58.9063 1.42188 50.5782C1.42188 42.2502 8.32825 35.5471 16.6563 35.5471H51.5938V39.6093H16.6563C10.5625 39.6093 5.68762 44.4844 5.68762 50.578C5.68762 56.6715 10.5627 61.5466 16.6563 61.5466H43.0625V65.6092H42.8593V65.6094Z" fill="#183651"/>
<path d="M90.5939 98.5156L84.0939 91.8125L90.5939 85.3125L93.6406 88.1561L89.7813 91.8125L93.6406 95.6718L90.5939 98.5156Z" fill="#183651"/>
<path d="M113.344 93.8438H86.9374V89.7813H113.344C119.437 89.7813 124.312 84.9062 124.312 78.8126V77.7971C124.312 71.7033 119.437 66.8285 113.344 66.8285H78.4061V62.7659H113.344C121.672 62.7659 128.375 69.4691 128.375 77.7971V78.8126C128.375 87.1406 121.672 93.8438 113.344 93.8438Z" fill="#183651"/>
<path d="M90.5939 43.8751L84.0939 37.1719L90.5939 30.4688L93.6406 33.3126L89.7813 37.1719L93.6406 41.0313L90.5939 43.8751Z" fill="#183651"/>
<path d="M113.344 39.2032H86.9374V35.1407H113.344C119.437 35.1407 124.312 30.2656 124.312 24.172V23.1565C124.312 17.0627 119.437 12.1879 113.344 12.1879H78.4061V8.12506H113.344C121.672 8.12506 128.375 14.8282 128.375 23.1562V24.1718C128.375 32.5 121.672 39.2032 113.344 39.2032Z" fill="#183651"/>
<path d="M127.969 111.516H101.156V127.969H127.969V111.516Z" fill="#F06151"/>
<path d="M127.969 130H101.156C99.9376 130 99.125 129.187 99.125 127.969V111.516C99.125 110.297 99.9376 109.484 101.156 109.484H127.969C129.187 109.484 130 110.297 130 111.516V127.969C130 129.187 129.187 130 127.969 130ZM103.188 125.937H125.938V113.547H103.188V125.937Z" fill="#183651"/>
<path d="M28.8437 2.03125H2.03125V18.4844H28.8437V2.03125Z" fill="#F06151"/>
<path d="M28.8437 20.5156H2.03127C0.81256 20.5156 0 19.7031 0 18.4844V2.03127C0 0.81256 0.81256 0 2.03127 0H28.8437C30.0624 0 30.8749 0.81256 30.8749 2.03127V18.4844C30.8749 19.4999 30.0624 20.5156 28.8437 20.5156ZM4.06254 16.4531H26.8127V4.06254H4.06254V16.4531Z" fill="#183651"/>
</g>
<defs>
<clipPath id="clip0">
<rect width="130" height="130" fill="white"/>
</clipPath>
</defs>
</svg>
