<svg width="183" height="183" viewBox="0 0 183 183" fill="none" xmlns="http://www.w3.org/2000/svg">
<path d="M91.5 60.0469C105.713 60.0469 117.234 48.5252 117.234 34.3125C117.234 20.0998 105.713 8.57812 91.5 8.57812C77.2873 8.57812 65.7656 20.0998 65.7656 34.3125C65.7656 48.5252 77.2873 60.0469 91.5 60.0469Z" fill="#FF7956"/>
<path d="M117.234 34.3125C117.24 40.3355 115.131 46.1692 111.275 50.7965C107.42 55.4239 102.063 58.5513 96.1381 59.6335C90.2131 60.7157 84.0963 59.684 78.8541 56.7184C73.612 53.7527 69.5769 49.0412 67.4526 43.4054C71.8987 46.776 77.3214 48.6073 82.9008 48.6224C88.4801 48.6375 93.9126 46.8355 98.3769 43.4889C102.841 40.1423 106.094 35.4332 107.645 30.0735C109.195 24.7139 108.958 18.9952 106.969 13.7822C110.162 16.1679 112.752 19.2665 114.534 22.831C116.317 26.3956 117.241 30.3273 117.234 34.3125Z" fill="#FF5023"/>
<path d="M91.5 108.656C100.975 108.656 108.656 100.975 108.656 91.5C108.656 82.0249 100.975 74.3438 91.5 74.3438C82.0249 74.3438 74.3438 82.0249 74.3438 91.5C74.3438 100.975 82.0249 108.656 91.5 108.656Z" fill="#57A4FF"/>
<path d="M108.657 91.5C108.652 95.2382 107.426 98.8724 105.165 101.85C102.905 104.827 99.7342 106.985 96.135 107.995C92.5358 109.005 88.7053 108.811 85.226 107.444C81.7468 106.077 78.8093 103.611 76.8604 100.421C79.5414 102.075 82.6315 102.947 85.7816 102.937C90.3317 102.937 94.6955 101.13 97.9129 97.9125C101.13 94.6951 102.938 90.3314 102.938 85.7812C102.947 82.6311 102.075 79.5411 100.422 76.86C102.939 78.3848 105.019 80.5336 106.462 83.0985C107.905 85.6633 108.661 88.5572 108.657 91.5Z" fill="#006DF0"/>
<path d="M165.129 98.1052C164.864 98.9193 164.539 99.7126 164.157 100.478L169.904 107.856L162.184 115.576L154.807 109.829C154.041 110.211 153.247 110.536 152.433 110.801L151.261 120.094H140.395L139.223 110.801C138.409 110.536 137.616 110.211 136.85 109.829L129.472 115.576L121.752 107.856L127.5 100.478C127.117 99.7126 126.792 98.9193 126.527 98.1052L117.234 96.9328V86.0672L121.438 85.5239L126.527 84.8948C126.792 84.0807 127.117 83.2874 127.5 82.5216L121.752 75.1444L129.472 67.4241L136.85 73.1714C137.616 72.7888 138.409 72.4638 139.223 72.1992L140.395 62.9062H151.261L152.433 72.1992C153.247 72.4638 154.041 72.7888 154.807 73.1714L162.184 67.4241L169.904 75.1444L164.157 82.5216C164.539 83.2874 164.864 84.0807 165.129 84.8948L174.422 86.0672V96.9328L165.129 98.1052Z" fill="#C0AB91"/>
<path d="M165.129 98.1053C164.864 98.9194 164.539 99.7127 164.157 100.479L169.904 107.856L162.184 115.576L154.807 109.829C154.041 110.211 153.247 110.536 152.433 110.801L151.261 120.094H140.395L139.223 110.801C138.409 110.536 137.616 110.211 136.85 109.829L129.473 115.576L125.298 111.401C134.377 107.499 142.505 101.678 149.124 94.3387C155.742 86.9996 160.695 78.3156 163.642 68.8824L169.904 75.1445L164.157 82.5217C164.539 83.2875 164.864 84.0808 165.129 84.8949L174.422 86.0673V96.9329L165.129 98.1053Z" fill="#A78966"/>
<path d="M145.828 102.938C152.145 102.938 157.266 97.8168 157.266 91.5C157.266 85.1832 152.145 80.0625 145.828 80.0625C139.511 80.0625 134.391 85.1832 134.391 91.5C134.391 97.8168 139.511 102.938 145.828 102.938Z" fill="#FFDE55"/>
<path d="M157.266 91.5C157.274 94.3147 156.243 97.0336 154.372 99.1362C152.501 101.239 149.92 102.578 147.123 102.896C144.326 103.215 141.51 102.491 139.214 100.863C136.918 99.2353 135.302 96.8178 134.677 94.0734C135.523 94.2563 136.385 94.3522 137.25 94.3593C140.284 94.3593 143.193 93.1543 145.338 91.0094C147.483 88.8644 148.688 85.9552 148.688 82.9218C148.681 82.0565 148.585 81.1942 148.402 80.3484C150.923 80.9305 153.172 82.3503 154.782 84.3757C156.392 86.4011 157.267 88.9126 157.266 91.5Z" fill="#EBBF00"/>
<path d="M56.4727 98.1052C56.208 98.9193 55.8831 99.7126 55.5005 100.478L61.2478 107.856L53.5275 115.576L46.1503 109.829C45.3845 110.211 44.5912 110.536 43.777 110.801L42.6047 120.094H31.7391L30.5667 110.801C29.7526 110.536 28.9593 110.211 28.1934 109.829L20.8163 115.576L13.0959 107.856L18.8433 100.478C18.4607 99.7126 18.1357 98.9193 17.8711 98.1052L8.57812 96.9328V86.0672L12.7814 85.5239L17.8711 84.8948C18.1357 84.0807 18.4607 83.2874 18.8433 82.5216L13.0959 75.1444L20.8163 67.4241L28.1934 73.1714C28.9593 72.7888 29.7526 72.4638 30.5667 72.1992L31.7391 62.9062H42.6047L43.777 72.1992C44.5912 72.4638 45.3845 72.7888 46.1503 73.1714L53.5275 67.4241L61.2478 75.1444L55.5005 82.5216C55.8831 83.2874 56.208 84.0807 56.4727 84.8948L65.7656 86.0672V96.9328L56.4727 98.1052Z" fill="#C0AB91"/>
<path d="M56.4727 98.1053C56.2081 98.9194 55.8831 99.7127 55.5005 100.479L61.2479 107.856L53.5275 115.576L46.1504 109.829C45.3845 110.211 44.5912 110.536 43.7771 110.801L42.6047 120.094H31.7391L30.5668 110.801C29.7526 110.536 28.9593 110.211 28.1935 109.829L20.8163 115.576L16.6416 111.401C26.8638 106.974 35.8678 100.147 42.8907 91.5001C48.3033 84.7849 52.4062 77.1126 54.9858 68.8824L61.2479 75.1445L55.5005 82.5217C55.8831 83.2875 56.2081 84.0808 56.4727 84.8949L65.7657 86.0673V96.9329L56.4727 98.1053Z" fill="#A78966"/>
<path d="M37.1719 102.938C43.4886 102.938 48.6094 97.8168 48.6094 91.5C48.6094 85.1832 43.4886 80.0625 37.1719 80.0625C30.8551 80.0625 25.7344 85.1832 25.7344 91.5C25.7344 97.8168 30.8551 102.938 37.1719 102.938Z" fill="#FFDE55"/>
<path d="M48.6096 91.5C48.6175 94.3147 47.5872 97.0336 45.7158 99.1362C43.8444 101.239 41.2634 102.578 38.4668 102.896C35.6701 103.215 32.8541 102.491 30.5577 100.863C28.2614 99.2353 26.6459 96.8178 26.0205 94.0734C26.8663 94.2563 27.7286 94.3522 28.5939 94.3593C31.6274 94.3593 34.5365 93.1543 36.6815 91.0094C38.8264 88.8644 40.0314 85.9552 40.0314 82.9218C40.0243 82.0565 39.9285 81.1942 39.7455 80.3484C42.2665 80.9305 44.5157 82.3503 46.1256 84.3757C47.7356 86.4011 48.6112 88.9126 48.6096 91.5Z" fill="#EBBF00"/>
<path d="M145.914 166.988C146.867 169.411 147.66 171.894 148.287 174.422H34.3123C34.7186 171.78 35.6626 169.25 37.0859 166.988L29.2227 159.353L34.9414 149.46L45.4925 152.462C46.6049 151.058 47.7884 149.713 49.0381 148.43C50.9594 146.37 53.0336 144.459 55.243 142.711L52.2406 132.16L62.1341 126.442L69.7686 134.305C74.0662 132.606 78.5478 131.416 83.1219 130.759L85.7811 120.094H97.2186L99.8778 130.759C104.452 131.416 108.933 132.606 113.231 134.305L120.866 126.442L130.759 132.16L127.757 142.711C131.191 145.772 134.446 149.028 137.507 152.462L148.058 149.46L153.777 159.353L145.914 166.988Z" fill="#957856"/>
<path d="M145.914 166.988C146.868 169.411 147.661 171.894 148.287 174.422H135.392C131.72 165.933 126.537 158.182 120.094 151.547C109.989 141.228 97.2209 133.913 83.208 130.416L85.7814 120.094H97.2189L99.8782 130.759C104.452 131.416 108.934 132.606 113.231 134.305L120.866 126.442L130.759 132.16L127.757 142.711C131.191 145.772 134.446 149.028 137.508 152.462L148.059 149.46L153.777 159.353L145.914 166.988Z" fill="#6A563D"/>
<path d="M174.765 83.2078L167.903 82.35L172.163 76.8886C172.587 76.3361 172.795 75.6477 172.748 74.9528C172.7 74.2578 172.401 73.604 171.906 73.1142L164.214 65.4225C163.724 64.9272 163.07 64.6278 162.375 64.5804C161.68 64.533 160.992 64.741 160.44 65.1652L154.978 69.4256L154.12 62.5631C154.028 61.8689 153.688 61.2315 153.162 60.7689C152.637 60.3063 151.961 60.0498 151.261 60.0469H140.395C139.695 60.0498 139.02 60.3063 138.494 60.7689C137.968 61.2315 137.628 61.8689 137.536 62.5631L136.678 69.4256L131.217 65.1652C130.664 64.741 129.976 64.533 129.281 64.5804C128.586 64.6278 127.932 64.9272 127.442 65.4225L119.751 73.1142C119.255 73.604 118.956 74.2578 118.909 74.9528C118.861 75.6477 119.069 76.3361 119.493 76.8886L123.754 82.35L116.891 83.2078C116.197 83.2997 115.56 83.6401 115.097 84.1657C114.634 84.6914 114.378 85.3669 114.375 86.0672V96.9328C114.378 97.6331 114.634 98.3086 115.097 98.8342C115.56 99.3599 116.197 99.7003 116.891 99.7922L123.754 100.65L119.493 106.111C119.069 106.664 118.861 107.352 118.909 108.047C118.956 108.742 119.255 109.396 119.751 109.886L127.442 117.577C127.932 118.073 128.586 118.372 129.281 118.42C129.976 118.467 130.664 118.259 131.217 117.835L136.678 113.574L137.536 120.437C137.628 121.131 137.968 121.768 138.494 122.231C139.02 122.694 139.695 122.95 140.395 122.953H151.261C151.961 122.95 152.637 122.694 153.162 122.231C153.688 121.768 154.028 121.131 154.12 120.437L154.978 113.574L160.44 117.835C160.992 118.259 161.68 118.467 162.375 118.42C163.07 118.372 163.724 118.073 164.214 117.577L171.906 109.886C172.401 109.396 172.7 108.742 172.748 108.047C172.795 107.352 172.587 106.664 172.163 106.111L167.903 100.65L174.765 99.7922C175.459 99.7003 176.097 99.3599 176.559 98.8342C177.022 98.3086 177.278 97.6331 177.281 96.9328V86.0672C177.278 85.3669 177.022 84.6914 176.559 84.1657C176.097 83.6401 175.459 83.2997 174.765 83.2078ZM171.562 94.4166L164.786 95.2744C164.255 95.3422 163.754 95.5578 163.339 95.8964C162.925 96.2351 162.613 96.6834 162.441 97.1902C162.184 97.8764 161.898 98.5627 161.583 99.2203C161.343 99.6985 161.245 100.235 161.301 100.768C161.357 101.3 161.564 101.805 161.898 102.223L166.101 107.627L161.955 111.773L156.551 107.57C156.133 107.236 155.628 107.029 155.096 106.973C154.564 106.917 154.027 107.015 153.548 107.255C152.891 107.57 152.205 107.856 151.518 108.113C151.009 108.28 150.558 108.59 150.218 109.006C149.879 109.421 149.665 109.925 149.602 110.458L148.745 117.234H142.912L142.054 110.458C141.991 109.925 141.778 109.421 141.438 109.006C141.099 108.59 140.648 108.28 140.138 108.113C139.452 107.856 138.765 107.57 138.108 107.255C137.63 107.015 137.093 106.917 136.561 106.973C136.029 107.029 135.524 107.236 135.105 107.57L129.701 111.773L125.555 107.627L129.758 102.223C130.092 101.805 130.299 101.3 130.355 100.768C130.411 100.235 130.313 99.6985 130.073 99.2203C129.758 98.5627 129.472 97.8764 129.215 97.1902C129.043 96.6834 128.732 96.2351 128.317 95.8964C127.903 95.5578 127.401 95.3422 126.87 95.2744L120.094 94.4166V88.5834L126.87 87.7256C127.401 87.6578 127.903 87.4422 128.317 87.1035C128.732 86.7649 129.043 86.3166 129.215 85.8098C129.472 85.1236 129.758 84.4373 130.073 83.7797C130.313 83.3015 130.411 82.7646 130.355 82.2325C130.299 81.7004 130.092 81.1954 129.758 80.7773L125.555 75.3731L129.701 71.227L135.105 75.4303C135.524 75.7642 136.029 75.9712 136.561 76.027C137.093 76.0827 137.63 75.9848 138.108 75.7448C138.765 75.4303 139.452 75.1444 140.138 74.887C140.648 74.7195 141.099 74.4098 141.438 73.9944C141.778 73.5789 141.991 73.0751 142.054 72.5423L142.912 65.7656H148.745L149.602 72.5423C149.665 73.0751 149.879 73.5789 150.218 73.9944C150.558 74.4098 151.009 74.7195 151.518 74.887C152.205 75.1444 152.891 75.4303 153.548 75.7448C154.027 75.9848 154.564 76.0827 155.096 76.027C155.628 75.9712 156.133 75.7642 156.551 75.4303L161.955 71.227L166.101 75.3731L161.898 80.7773C161.564 81.1954 161.357 81.7004 161.301 82.2325C161.245 82.7646 161.343 83.3015 161.583 83.7797C161.898 84.4373 162.184 85.1236 162.441 85.8098C162.613 86.3166 162.925 86.7649 163.339 87.1035C163.754 87.4422 164.255 87.6578 164.786 87.7256L171.562 88.5834V94.4166Z" fill="black"/>
<path d="M8.22364 99.7921L15.0861 100.65L10.8457 106.111C10.4178 106.661 10.2054 107.349 10.2486 108.044C10.2918 108.74 10.5875 109.396 11.0802 109.889L18.7805 117.592C19.2731 118.086 19.9294 118.382 20.6256 118.426C21.3218 118.47 22.01 118.257 22.5605 117.829L28.022 113.571L28.8798 120.448C28.9666 121.144 29.3058 121.783 29.833 122.245C30.3601 122.706 31.0384 122.958 31.7391 122.953H42.6048C43.3016 122.953 43.9743 122.698 44.4966 122.237C45.0189 121.776 45.3549 121.14 45.4413 120.448L46.2991 113.571L51.7691 117.829C52.3196 118.257 53.0078 118.47 53.704 118.426C54.4003 118.382 55.0565 118.086 55.5492 117.592L63.2495 109.889C63.7421 109.396 64.0378 108.74 64.081 108.044C64.1242 107.349 63.9118 106.661 63.4839 106.111L59.2463 100.65L66.1088 99.7921C66.8038 99.7081 67.4438 99.3721 67.9076 98.8477C68.3713 98.3234 68.6266 97.6471 68.6251 96.9471V86.0671C68.6249 85.3703 68.3703 84.6976 67.909 84.1753C67.4478 83.653 66.8117 83.317 66.1203 83.2306L59.2578 82.3728L63.5097 76.9057C63.9376 76.3557 64.1499 75.6683 64.1067 74.9727C64.0636 74.2772 63.7679 73.6214 63.2752 73.1285L55.5749 65.4253C55.0822 64.9315 54.426 64.6347 53.7298 64.591C53.0336 64.5473 52.3454 64.7596 51.7948 65.188L46.322 69.4284L45.4641 62.5659C45.3805 61.868 45.0427 61.2253 44.5153 60.7606C43.9878 60.2959 43.3077 60.0418 42.6048 60.0468H31.7391C31.0423 60.047 30.3696 60.3017 29.8473 60.7629C29.325 61.2241 28.989 61.8602 28.9026 62.5516L28.0448 69.4141L22.5605 65.1708C22.01 64.7425 21.3218 64.5302 20.6256 64.5739C19.9294 64.6176 19.2731 64.9143 18.7805 65.4082L11.0802 73.1113C10.5875 73.6042 10.2918 74.26 10.2486 74.9556C10.2054 75.6511 10.4178 76.3385 10.8457 76.8885L15.0976 82.35L8.23508 83.2078C7.53764 83.292 6.89565 83.6301 6.43155 84.1575C5.96746 84.6849 5.71375 85.3647 5.71882 86.0671V96.9614C5.72041 97.6572 5.97567 98.3285 6.43678 98.8497C6.89788 99.3708 7.53318 99.7059 8.22364 99.7921ZM11.4376 88.5777L18.2143 87.7199C18.7459 87.6532 19.2482 87.4386 19.6638 87.1004C20.0793 86.7622 20.3915 86.314 20.5647 85.8069C20.8068 85.1116 21.0934 84.4325 21.4225 83.7739C21.6596 83.2924 21.7564 82.7538 21.7018 82.2198C21.6472 81.6858 21.4434 81.178 21.1137 80.7544L16.9076 75.3702L21.0394 71.2384L26.435 75.4331C26.8577 75.7622 27.3644 75.9658 27.8972 76.0209C28.4301 76.0761 28.9677 75.9804 29.4488 75.7448C30.1115 75.4161 30.7944 75.1296 31.4932 74.887C31.9997 74.7133 32.4473 74.401 32.785 73.9854C33.1227 73.5699 33.3369 73.0679 33.4033 72.5366L34.2611 65.757H40.1L40.9578 72.5366C41.0241 73.0679 41.2384 73.5699 41.576 73.9854C41.9137 74.401 42.3613 74.7133 42.8678 74.887C43.5667 75.1296 44.2495 75.4161 44.9123 75.7448C45.3934 75.9804 45.931 76.0761 46.4638 76.0209C46.9967 75.9658 47.5033 75.7622 47.9261 75.4331L53.3217 71.2384L57.4535 75.3702L53.2559 80.7659C52.9262 81.1894 52.7224 81.6973 52.6678 82.2313C52.6132 82.7652 52.71 83.3038 52.9471 83.7854C53.2763 84.444 53.5628 85.123 53.8049 85.8184C53.9781 86.3254 54.2903 86.7736 54.7059 87.1118C55.1215 87.45 55.6237 87.6647 56.1553 87.7313L62.9321 88.5891V94.4337L56.1553 95.2915C55.6237 95.3581 55.1215 95.5727 54.7059 95.911C54.2903 96.2492 53.9781 96.6974 53.8049 97.2044C53.5623 97.9005 53.2758 98.5805 52.9471 99.2403C52.7106 99.7215 52.6141 100.259 52.6687 100.793C52.7233 101.326 52.9268 101.834 53.2559 102.257L57.4535 107.653L53.3217 111.784L47.9261 107.59C47.5036 107.253 46.9945 107.043 46.4575 106.984C45.9206 106.925 45.3779 107.019 44.8923 107.255C44.2295 107.584 43.5467 107.87 42.8478 108.113C42.3413 108.287 41.8937 108.599 41.556 109.014C41.2183 109.43 41.0041 109.932 40.9377 110.463L40.0914 117.234H34.2525L33.3947 110.455C33.3283 109.923 33.1141 109.421 32.7764 109.006C32.4387 108.59 31.9912 108.278 31.4847 108.104C30.7858 107.862 30.103 107.575 29.4402 107.247C28.9591 107.011 28.4215 106.915 27.8886 106.97C27.3558 107.025 26.8491 107.229 26.4264 107.558L21.0394 111.761L16.9076 107.63L21.1051 102.234C21.4337 101.811 21.6369 101.304 21.6915 100.771C21.7461 100.239 21.6499 99.7011 21.4139 99.2203C21.0853 98.5605 20.7988 97.8805 20.5561 97.1844C20.3829 96.6773 20.0707 96.2292 19.6552 95.8909C19.2396 95.5527 18.7374 95.3381 18.2057 95.2715L11.4376 94.4222V88.5777Z" fill="black"/>
<path d="M37.1719 105.797C39.9995 105.797 42.7637 104.958 45.1148 103.387C47.4659 101.816 49.2984 99.5836 50.3805 96.9712C51.4626 94.3588 51.7457 91.4841 51.194 88.7108C50.6424 85.9375 49.2807 83.39 47.2813 81.3906C45.2818 79.3911 42.7344 78.0295 39.9611 77.4778C37.1877 76.9262 34.3131 77.2093 31.7007 78.2914C29.0883 79.3735 26.8554 81.206 25.2845 83.5571C23.7135 85.9082 22.875 88.6724 22.875 91.5C22.8795 95.2904 24.3873 98.9242 27.0675 101.604C29.7477 104.285 33.3815 105.792 37.1719 105.797ZM37.1719 82.9219C38.8685 82.9219 40.527 83.425 41.9376 84.3676C43.3483 85.3101 44.4478 86.6499 45.097 88.2173C45.7463 89.7847 45.9162 91.5095 45.5852 93.1735C45.2542 94.8375 44.4372 96.366 43.2375 97.5656C42.0379 98.7653 40.5094 99.5823 38.8454 99.9133C37.1814 100.244 35.4566 100.074 33.8892 99.4252C32.3217 98.7759 30.982 97.6764 30.0394 96.2658C29.0968 94.8551 28.5937 93.1966 28.5937 91.5C28.5937 89.2249 29.4975 87.0431 31.1062 85.4344C32.7149 83.8256 34.8968 82.9219 37.1719 82.9219Z" fill="black"/>
<path d="M145.828 77.2031C143 77.2031 140.236 78.0416 137.885 79.6126C135.534 81.1835 133.702 83.4164 132.62 86.0288C131.537 88.6412 131.254 91.5159 131.806 94.2892C132.358 97.0625 133.719 99.61 135.719 101.609C137.718 103.609 140.266 104.971 143.039 105.522C145.812 106.074 148.687 105.791 151.299 104.709C153.912 103.626 156.145 101.794 157.716 99.4429C159.287 97.0918 160.125 94.3277 160.125 91.5C160.12 87.7096 158.613 84.0758 155.933 81.3956C153.252 78.7154 149.619 77.2077 145.828 77.2031ZM145.828 100.078C144.132 100.078 142.473 99.575 141.062 98.6325C139.652 97.6899 138.552 96.3502 137.903 94.7827C137.254 93.2153 137.084 91.4905 137.415 89.8265C137.746 88.1625 138.563 86.634 139.762 85.4344C140.962 84.2347 142.491 83.4177 144.155 83.0867C145.819 82.7557 147.543 82.9256 149.111 83.5748C150.678 84.2241 152.018 85.3236 152.961 86.7343C153.903 88.1449 154.406 89.8034 154.406 91.5C154.406 93.7751 153.502 95.9569 151.894 97.5657C150.285 99.1744 148.103 100.078 145.828 100.078Z" fill="black"/>
<path d="M150.46 171.563C150.089 170.276 149.688 168.989 149.259 167.731L155.779 161.412C156.238 160.968 156.535 160.383 156.623 159.751C156.711 159.119 156.585 158.476 156.265 157.923L150.546 148.03C150.23 147.476 149.736 147.044 149.145 146.806C148.553 146.567 147.898 146.535 147.286 146.715L138.451 149.231C136.564 147.172 133.247 143.798 131.017 141.739L133.504 132.932C133.684 132.32 133.652 131.665 133.413 131.074C133.174 130.482 132.743 129.989 132.189 129.673L122.295 123.954C121.741 123.641 121.099 123.519 120.469 123.607C119.839 123.694 119.255 123.987 118.807 124.44L112.488 130.959C109.14 129.763 105.696 128.854 102.194 128.243L99.9923 119.407C99.8391 118.788 99.4827 118.237 98.98 117.843C98.4774 117.449 97.8573 117.235 97.2188 117.234H85.7812C85.1427 117.235 84.5226 117.449 84.02 117.843C83.5173 118.237 83.1609 118.788 83.0077 119.407L80.8059 128.243C77.3037 128.854 73.8599 129.763 70.5122 130.959L64.193 124.44C63.7455 123.987 63.1615 123.694 62.531 123.607C61.9006 123.519 61.2587 123.641 60.7045 123.954L50.8111 129.673C50.2569 129.989 49.8256 130.482 49.5869 131.074C49.3482 131.665 49.3161 132.32 49.4958 132.932L51.9834 141.682C50.2298 143.161 48.5683 144.747 47.0081 146.429C46.1217 147.315 45.2925 148.23 44.4633 149.202L35.7136 146.715C35.1015 146.535 34.4467 146.567 33.8552 146.806C33.2636 147.044 32.7699 147.476 32.4539 148.03L26.7352 157.923C26.4152 158.476 26.2892 159.119 26.3773 159.751C26.4654 160.383 26.7625 160.968 27.2213 161.412L33.5405 167.531C32.9019 168.818 32.4034 170.169 32.0536 171.563H5.71875V177.281H177.281V171.563H150.46ZM61.7911 171.563C64.8035 166.349 69.1347 162.021 74.3495 159.011C79.5643 156.002 85.4791 154.418 91.5 154.418C97.5209 154.418 103.436 156.002 108.651 159.011C113.865 162.021 118.196 166.349 121.209 171.563H61.7911ZM127.643 171.563C124.401 164.719 119.284 158.937 112.886 154.888C106.488 150.839 99.0718 148.689 91.5 148.689C83.9282 148.689 76.512 150.839 70.1138 154.888C63.7157 158.937 58.5985 164.719 55.3575 171.563H38.0011C38.4169 170.487 38.9339 169.453 39.5452 168.474C39.8756 167.917 40.01 167.265 39.9271 166.623C39.8442 165.98 39.5487 165.384 39.0877 164.929L32.8256 158.867L36.3141 152.805L44.7206 155.207C45.261 155.362 45.8354 155.352 46.3702 155.179C46.905 155.006 47.3761 154.677 47.723 154.235C48.8381 152.862 49.9247 151.604 51.1256 150.375C52.9573 148.426 54.9257 146.61 57.0159 144.942C57.4599 144.596 57.7898 144.125 57.9632 143.59C58.1365 143.055 58.1452 142.48 57.9881 141.939L55.5863 133.533L61.6481 130.044L67.71 136.306C68.1057 136.713 68.6133 136.992 69.1683 137.109C69.7233 137.227 70.3006 137.176 70.8267 136.964C74.9225 135.348 79.1928 134.216 83.5509 133.59C84.111 133.507 84.6336 133.259 85.0514 132.876C85.4692 132.494 85.7632 131.996 85.8956 131.445L88.0116 122.953H94.9884L97.1044 131.445C97.2368 131.996 97.5308 132.494 97.9486 132.876C98.3664 133.259 98.889 133.507 99.4491 133.59C103.807 134.216 108.077 135.348 112.173 136.964C112.699 137.176 113.277 137.227 113.832 137.109C114.387 136.992 114.894 136.713 115.29 136.306L121.352 130.044L127.414 133.533L125.012 141.939C124.855 142.48 124.864 143.055 125.037 143.59C125.21 144.125 125.54 144.596 125.984 144.942C129.238 147.88 132.339 150.981 135.277 154.235C135.624 154.677 136.095 155.006 136.63 155.179C137.165 155.352 137.739 155.362 138.279 155.207L146.686 152.805L150.174 158.867L143.912 164.929C143.506 165.324 143.226 165.832 143.109 166.387C142.992 166.942 143.043 167.519 143.255 168.045C143.712 169.189 144.141 170.362 144.513 171.563H127.643Z" fill="black"/>
<path d="M91.5 62.9063C97.1553 62.9063 102.684 61.2293 107.386 58.0873C112.088 54.9454 115.753 50.4797 117.917 45.2549C120.081 40.03 120.648 34.2808 119.544 28.7341C118.441 23.1875 115.718 18.0926 111.719 14.0937C107.72 10.0948 102.625 7.37148 97.0784 6.26818C91.5317 5.16489 85.7825 5.73114 80.5576 7.89533C75.3328 10.0595 70.8671 13.7245 67.7252 18.4267C64.5832 23.1289 62.9063 28.6572 62.9062 34.3125C62.9146 41.8935 65.9298 49.1616 71.2904 54.5222C76.6509 59.8827 83.919 62.8979 91.5 62.9063ZM91.5 11.4375C96.0242 11.4375 100.447 12.7791 104.209 15.2926C107.97 17.8062 110.902 21.3788 112.634 25.5586C114.365 29.7385 114.818 34.3379 113.935 38.7752C113.053 43.2125 110.874 47.2885 107.675 50.4876C104.476 53.6867 100.4 55.8653 95.9627 56.748C91.5254 57.6306 86.926 57.1776 82.7461 55.4463C78.5663 53.7149 74.9937 50.783 72.4801 47.0212C69.9666 43.2594 68.625 38.8368 68.625 34.3125C68.6318 28.2478 71.044 22.4334 75.3325 18.145C79.6209 13.8565 85.4353 11.4443 91.5 11.4375Z" fill="black"/>
<path d="M91.5 37.1719H105.797V31.4531H94.3594V17.1562H88.6406V34.3125C88.6406 35.0709 88.9419 35.7981 89.4781 36.3344C90.0144 36.8706 90.7416 37.1719 91.5 37.1719Z" fill="black"/>
<path d="M40.0312 42.8906C40.0312 40.6156 40.935 38.4337 42.5437 36.825C44.1524 35.2163 46.3343 34.3125 48.6094 34.3125H57.1875V28.5938H48.6094C44.819 28.5983 41.1852 30.106 38.505 32.7862C35.8248 35.4664 34.317 39.1003 34.3125 42.8906V54.3281H40.0312V42.8906Z" fill="black"/>
<path d="M142.969 42.8906V54.3281H148.687V42.8906C148.683 39.1003 147.175 35.4664 144.495 32.7862C141.815 30.106 138.181 28.5983 134.391 28.5938H125.812V34.3125H134.391C136.666 34.3125 138.848 35.2163 140.456 36.825C142.065 38.4337 142.969 40.6156 142.969 42.8906Z" fill="black"/>
<path d="M88.6406 82.9219V88.6406H82.9219V94.3594H88.6406V100.078H94.3594V94.3594H100.078V88.6406H94.3594V82.9219H88.6406Z" fill="black"/>
<path d="M71.4844 91.5C71.4844 95.4587 72.6583 99.3285 74.8576 102.62C77.057 105.912 80.183 108.477 83.8404 109.992C87.4977 111.507 91.5222 111.903 95.4048 111.131C99.2875 110.359 102.854 108.452 105.653 105.653C108.452 102.854 110.359 99.2875 111.131 95.4048C111.903 91.5222 111.507 87.4977 109.992 83.8404C108.477 80.183 105.912 77.057 102.62 74.8576C99.3285 72.6583 95.4587 71.4844 91.5 71.4844C86.1934 71.4904 81.1058 73.6012 77.3535 77.3535C73.6012 81.1058 71.4904 86.1934 71.4844 91.5ZM105.797 91.5C105.797 94.3277 104.958 97.0918 103.387 99.4429C101.816 101.794 99.5836 103.626 96.9712 104.709C94.3588 105.791 91.4841 106.074 88.7108 105.522C85.9375 104.971 83.39 103.609 81.3906 101.609C79.3911 99.61 78.0295 97.0625 77.4778 94.2892C76.9262 91.5159 77.2093 88.6412 78.2914 86.0288C79.3735 83.4164 81.206 81.1835 83.5571 79.6126C85.9082 78.0416 88.6723 77.2031 91.5 77.2031C95.2904 77.2077 98.9242 78.7154 101.604 81.3956C104.285 84.0758 105.792 87.7096 105.797 91.5Z" fill="black"/>
</svg>
