<svg width="414" height="543" viewBox="0 0 414 543" fill="none" xmlns="http://www.w3.org/2000/svg">
<circle cx="324" cy="90" r="90" fill="#889A96"/>
<g clip-path="url(#clip0)">
<path d="M264.164 58.0926C258.078 68.096 257.437 85.4162 261.894 96.2435C265.799 105.727 273.566 114.629 283.761 115.744C287.51 116.154 291.342 115.484 295.053 116.16C307.813 118.483 312.56 134.21 322.477 142.569C329.379 148.387 338.955 150.446 347.912 149.325C356.869 148.204 365.254 144.155 372.636 138.96C378.465 134.857 383.919 129.813 386.795 123.292C392.824 109.622 385.731 93.2038 374.712 83.114C371.281 79.9714 367.455 77.1995 364.588 73.5349C361.721 69.87 359.896 64.9795 361.262 60.5314C362.352 56.9825 365.286 54.2314 366.398 50.6892C367.91 45.869 365.627 40.4616 361.878 37.0758C358.128 33.6899 353.167 31.9877 348.252 30.8195C327.659 25.9239 282.535 27.8932 264.164 58.0926Z" fill="url(#paint0_linear)"/>
<path opacity="0.1" d="M347.926 151.232H300.074C295.867 151.232 292.457 147.822 292.457 143.615V46.9585C292.457 42.7515 295.867 39.3413 300.074 39.3413H347.926C352.133 39.3413 355.543 42.7515 355.543 46.9585V143.615C355.543 147.822 352.133 151.232 347.926 151.232Z" fill="#2626BC"/>
<path d="M347.926 145.138H300.074C295.867 145.138 292.457 141.728 292.457 137.521V40.8647C292.457 36.6578 295.867 33.2476 300.074 33.2476H347.926C352.133 33.2476 355.543 36.6578 355.543 40.8647V137.521C355.543 141.728 352.133 145.138 347.926 145.138Z" fill="#6583FE"/>
<path d="M292.457 44.1425H355.543V134.244H292.457V44.1425Z" fill="white"/>
<path d="M347.926 146.408H300.074C295.174 146.408 291.187 142.421 291.187 137.521V40.8647C291.187 35.9646 295.174 31.978 300.074 31.978H347.926C352.826 31.978 356.813 35.9646 356.813 40.8647V137.521C356.813 142.421 352.826 146.408 347.926 146.408ZM300.074 34.5171C296.574 34.5171 293.726 37.3646 293.726 40.8647V137.521C293.726 141.021 296.574 143.869 300.074 143.869H347.926C351.426 143.869 354.274 141.021 354.274 137.521V40.8647C354.274 37.3646 351.426 34.5171 347.926 34.5171H300.074Z" fill="#2626BC"/>
<path d="M328.439 40.197H319.561C318.86 40.197 318.291 39.6285 318.291 38.9274C318.291 38.2264 318.86 37.6579 319.561 37.6579H328.439C329.14 37.6579 329.708 38.2264 329.708 38.9274C329.708 39.6285 329.14 40.197 328.439 40.197Z" fill="#B7C5FF"/>
<path d="M334.363 40.1969C335.064 40.1969 335.633 39.6283 335.633 38.9269C335.633 38.2255 335.064 37.6569 334.363 37.6569C333.661 37.6569 333.093 38.2255 333.093 38.9269C333.093 39.6283 333.661 40.1969 334.363 40.1969Z" fill="#B7C5FF"/>
<path d="M348.235 52.7397V74.2963C348.235 75.6979 347.098 76.8354 345.696 76.8354H302.304C300.902 76.8354 299.765 75.6979 299.765 74.2963V52.7397C299.765 51.3381 300.902 50.2006 302.304 50.2006H345.696C347.098 50.2006 348.235 51.3381 348.235 52.7397Z" fill="#9FB0FE"/>
<path d="M348.235 57.574V74.2963C348.235 75.6979 347.098 76.8354 345.696 76.8354H314.75C314.656 76.0381 314.608 75.2256 314.608 74.403C314.608 62.7918 324.02 53.3795 335.634 53.3795C340.359 53.3795 344.724 54.941 348.235 57.574Z" fill="#8399FE"/>
<path d="M348.235 124.166V134.244H299.765V124.166C299.765 122.765 300.902 121.627 302.304 121.627H345.696C347.098 121.627 348.235 122.765 348.235 124.166Z" fill="#02FFB3"/>
<path d="M319.699 127.937C319.699 130.207 319.155 132.35 318.193 134.244H299.765V124.166C299.765 122.765 300.902 121.627 302.304 121.627H318.193C319.155 123.524 319.699 125.667 319.699 127.937Z" fill="#97FFD2"/>
<path d="M321.028 95.4675H301.035C300.334 95.4675 299.765 94.899 299.765 94.198V84.108C299.765 83.407 300.334 82.8385 301.035 82.8385H321.028C321.729 82.8385 322.297 83.407 322.297 84.108V94.198C322.297 94.8993 321.729 95.4675 321.028 95.4675Z" fill="#FF7EB8"/>
<path d="M346.965 95.4675H326.972C326.271 95.4675 325.703 94.899 325.703 94.198V84.108C325.703 83.407 326.271 82.8385 326.972 82.8385H346.965C347.666 82.8385 348.235 83.407 348.235 84.108V94.198C348.235 94.8993 347.666 95.4675 346.965 95.4675Z" fill="#02FFB3"/>
<path d="M321.028 111.054H301.035C300.334 111.054 299.765 110.485 299.765 109.784V99.6943C299.765 98.9933 300.334 98.4248 301.035 98.4248H321.028C321.729 98.4248 322.297 98.9933 322.297 99.6943V109.784C322.297 110.485 321.729 111.054 321.028 111.054Z" fill="#8399FE"/>
<path d="M346.965 111.054H326.972C326.271 111.054 325.703 110.485 325.703 109.784V99.6943C325.703 98.9933 326.271 98.4248 326.972 98.4248H346.965C347.666 98.4248 348.235 98.9933 348.235 99.6943V109.784C348.235 110.485 347.666 111.054 346.965 111.054Z" fill="#FFC4DF"/>
<path d="M322.9 65.1122H306.223C305.522 65.1122 304.954 65.6807 304.954 66.3818C304.954 67.0828 305.522 67.6513 306.223 67.6513H322.9C323.601 67.6513 324.169 67.0828 324.169 66.3818C324.169 65.6807 323.601 65.1122 322.9 65.1122Z" fill="white"/>
<path d="M322.9 60.1794H306.223C305.522 60.1794 304.954 60.7479 304.954 61.449C304.954 62.15 305.522 62.7185 306.223 62.7185H322.9C323.601 62.7185 324.169 62.15 324.169 61.449C324.169 60.7479 323.601 60.1794 322.9 60.1794Z" fill="white"/>
<path d="M309.189 54.252H306.223C305.522 54.252 304.954 54.8204 304.954 55.5215C304.954 56.2225 305.522 56.791 306.223 56.791H309.189C309.89 56.791 310.459 56.2225 310.459 55.5215C310.459 54.8204 309.89 54.252 309.189 54.252Z" fill="#FFC4DF"/>
<path d="M311.617 116.439H301.034C300.333 116.439 299.765 117.007 299.765 117.708C299.765 118.409 300.333 118.978 301.034 118.978H311.617C312.318 118.978 312.887 118.409 312.887 117.708C312.887 117.007 312.318 116.439 311.617 116.439Z" fill="#8399FE"/>
<path d="M348.235 124.166V130.41C343.424 130.41 339.521 126.51 339.521 121.698V121.627H345.696C347.098 121.627 348.235 122.765 348.235 124.166Z" fill="#01ECA5"/>
<path d="M366.073 67.5087C364.073 67.5087 362.445 65.8809 362.445 63.8799C362.445 61.8788 364.073 60.251 366.073 60.251C368.074 60.251 369.702 61.8788 369.702 63.8799C369.702 65.8809 368.074 67.5087 366.073 67.5087ZM366.073 62.7903C365.473 62.7903 364.984 63.2791 364.984 63.8801C364.984 64.4811 365.473 64.9699 366.073 64.9699C366.674 64.9699 367.163 64.4811 367.163 63.8801C367.163 63.2791 366.674 62.7903 366.073 62.7903Z" fill="#FF5BA8"/>
<path d="M368.433 78.3687C366.432 78.3687 364.804 76.7409 364.804 74.7399C364.804 72.7388 366.432 71.111 368.433 71.111C370.433 71.111 372.061 72.7388 372.061 74.7399C372.061 76.7409 370.433 78.3687 368.433 78.3687ZM368.433 73.6503C367.832 73.6503 367.343 74.1391 367.343 74.7401C367.343 75.3411 367.832 75.8299 368.433 75.8299C369.033 75.8299 369.522 75.3411 369.522 74.7401C369.522 74.1391 369.033 73.6503 368.433 73.6503Z" fill="#6583FE"/>
<path d="M280.076 56.3035C279.375 56.3035 278.806 55.735 278.806 55.034C278.806 54.1938 278.123 53.5106 277.283 53.5106C276.582 53.5106 276.013 52.9421 276.013 52.241C276.013 51.54 276.582 50.9715 277.283 50.9715C278.123 50.9715 278.806 50.2882 278.806 49.4481C278.806 48.747 279.375 48.1785 280.076 48.1785C280.777 48.1785 281.345 48.747 281.345 49.4481C281.345 50.2882 282.029 50.9715 282.869 50.9715C283.57 50.9715 284.138 51.54 284.138 52.241C284.138 52.9421 283.57 53.5106 282.869 53.5106C282.029 53.5106 281.345 54.1938 281.345 55.034C281.345 55.735 280.777 56.3035 280.076 56.3035Z" fill="#01ECA5"/>
<path d="M281.282 131.011C280.581 131.011 280.012 130.443 280.012 129.742C280.012 128.901 279.329 128.218 278.489 128.218C277.788 128.218 277.219 127.65 277.219 126.949C277.219 126.248 277.788 125.679 278.489 125.679C279.329 125.679 280.012 124.996 280.012 124.156C280.012 123.455 280.581 122.886 281.282 122.886C281.983 122.886 282.551 123.455 282.551 124.156C282.551 124.996 283.235 125.679 284.075 125.679C284.776 125.679 285.344 126.248 285.344 126.949C285.344 127.65 284.776 128.218 284.075 128.218C283.235 128.218 282.551 128.901 282.551 129.742C282.551 130.443 281.983 131.011 281.282 131.011Z" fill="#01ECA5"/>
<path d="M277.283 118.835C276.582 118.835 276.013 118.266 276.013 117.565C276.013 116.725 275.33 116.042 274.49 116.042C273.789 116.042 273.22 115.473 273.22 114.772C273.22 114.071 273.789 113.503 274.49 113.503C275.33 113.503 276.013 112.819 276.013 111.979C276.013 111.278 276.582 110.71 277.283 110.71C277.984 110.71 278.552 111.278 278.552 111.979C278.552 112.819 279.236 113.503 280.076 113.503C280.777 113.503 281.345 114.071 281.345 114.772C281.345 115.473 280.777 116.042 280.076 116.042C279.236 116.042 278.552 116.725 278.552 117.565C278.552 118.266 277.984 118.835 277.283 118.835Z" fill="#FF5BA8"/>
</g>
<circle cx="201" cy="155" r="105" fill="#FF3353"/>
<g clip-path="url(#clip1)">
<path d="M201 220C236.899 220 266 190.899 266 155C266 119.102 236.899 90 201 90C165.102 90 136 119.102 136 155C136 190.899 165.102 220 201 220Z" fill="#FBBD5E"/>
<path d="M228.016 140.375H223.953V144.438H228.016V140.375Z" fill="#183651"/>
<path d="M240.406 140.375H236.344V144.438H240.406V140.375Z" fill="#183651"/>
<path d="M252.594 140.375H248.531V144.438H252.594V140.375Z" fill="#183651"/>
<path d="M153.469 165.563H149.406V169.625H153.469V165.563Z" fill="#183651"/>
<path d="M165.656 165.563H161.594V169.625H165.656V165.563Z" fill="#183651"/>
<path d="M178.047 165.563H173.984V169.625H178.047V165.563Z" fill="#183651"/>
<path d="M173.781 106.859L170.938 104.016L174.594 100.156L170.938 96.2968L173.781 93.4532L180.484 100.156L173.781 106.859Z" fill="#183651"/>
<path d="M177.438 98.1251H164.844V102.188H177.438V98.1251Z" fill="#183651"/>
<path d="M214.406 201.516H187.594V217.969H214.406V201.516Z" fill="#4FBF9F"/>
<path d="M214.406 220H187.594C186.375 220 185.562 219.187 185.562 217.969V201.516C185.562 200.297 186.375 199.484 187.594 199.484H214.406C215.625 199.484 216.437 200.297 216.437 201.516V217.969C216.437 219.187 215.625 220 214.406 220ZM189.625 215.937H212.375V203.547H189.625V215.937Z" fill="#183651"/>
<path d="M214.406 174.094H187.594V190.547H214.406V174.094Z" fill="#E0E4E8"/>
<path d="M214.406 192.578H187.594C186.375 192.578 185.562 191.766 185.562 190.547V174.094C185.562 172.875 186.375 172.063 187.594 172.063H214.406C215.625 172.063 216.437 172.875 216.437 174.094V190.547C216.437 191.766 215.625 192.578 214.406 192.578ZM189.625 188.516H212.375V176.125H189.625V188.516Z" fill="#183651"/>
<path d="M214.406 146.875H187.594V163.328H214.406V146.875Z" fill="#4FBF9F"/>
<path d="M214.406 165.156H187.594C186.375 165.156 185.562 164.344 185.562 163.125V146.672C185.562 145.453 186.375 144.641 187.594 144.641H214.406C215.625 144.641 216.437 145.453 216.437 146.672V163.125C216.437 164.344 215.625 165.156 214.406 165.156ZM189.625 161.094H212.375V148.703H189.625V161.094Z" fill="#183651"/>
<path d="M214.406 119.453H187.594V135.906H214.406V119.453Z" fill="#E0E4E8"/>
<path d="M214.406 137.937H187.594C186.375 137.937 185.562 137.125 185.562 135.906V119.453C185.562 118.234 186.375 117.422 187.594 117.422H214.406C215.625 117.422 216.437 118.234 216.437 119.453V135.906C216.437 136.922 215.625 137.937 214.406 137.937ZM189.625 133.875H212.375V121.485H189.625V133.875Z" fill="#183651"/>
<path d="M214.406 92.0312H187.594V108.484H214.406V92.0312Z" fill="#4FBF9F"/>
<path d="M214.406 110.516H187.594C186.375 110.516 185.562 109.703 185.562 108.484V92.0313C185.562 90.8126 186.375 90 187.594 90H214.406C215.625 90 216.437 90.8126 216.437 92.0313V108.484C216.437 109.5 215.625 110.516 214.406 110.516ZM189.625 106.453H212.375V94.0625H189.625V106.453Z" fill="#183651"/>
<path d="M223.344 215.735L220.5 212.891L224.156 209.234L220.5 205.375L223.344 202.531L229.844 209.234L223.344 215.735Z" fill="#183651"/>
<path d="M227 207.203H214.406V211.266H227V207.203Z" fill="#183651"/>
<path d="M175.406 214.922L172.359 212.078L176.219 208.219L172.359 204.359L175.406 201.516L181.906 208.219L175.406 214.922Z" fill="#183651"/>
<path d="M178.859 210.25H152.453C144.125 210.25 137.422 203.547 137.422 195.219C137.422 186.891 144.328 180.391 152.656 180.391H187.594V184.453H152.656C146.562 184.453 141.688 189.328 141.688 195.422C141.688 201.515 146.563 206.39 152.656 206.39H179.063V210.25H178.859V210.25Z" fill="#183651"/>
<path d="M175.406 160.078L172.359 157.234L176.219 153.578L172.359 149.719L175.406 146.875L181.906 153.578L175.406 160.078Z" fill="#183651"/>
<path d="M178.859 155.609H152.453C144.125 155.609 137.422 148.906 137.422 140.578C137.422 132.25 144.328 125.547 152.656 125.547H187.594V129.609H152.656C146.562 129.609 141.688 134.484 141.688 140.578C141.688 146.672 146.563 151.547 152.656 151.547H179.063V155.609H178.859V155.609Z" fill="#183651"/>
<path d="M226.594 188.516L220.094 181.812L226.594 175.312L229.641 178.156L225.781 181.812L229.641 185.672L226.594 188.516Z" fill="#183651"/>
<path d="M249.344 183.844H222.937V179.781H249.344C255.437 179.781 260.312 174.906 260.312 168.813V167.797C260.312 161.703 255.437 156.828 249.344 156.828H214.406V152.766H249.344C257.672 152.766 264.375 159.469 264.375 167.797V168.813C264.375 177.141 257.672 183.844 249.344 183.844Z" fill="#183651"/>
<path d="M226.594 133.875L220.094 127.172L226.594 120.469L229.641 123.313L225.781 127.172L229.641 131.031L226.594 133.875Z" fill="#183651"/>
<path d="M249.344 129.203H222.937V125.141H249.344C255.437 125.141 260.312 120.266 260.312 114.172V113.157C260.312 107.063 255.437 102.188 249.344 102.188H214.406V98.1251H249.344C257.672 98.1251 264.375 104.828 264.375 113.156V114.172C264.375 122.5 257.672 129.203 249.344 129.203Z" fill="#183651"/>
<path d="M263.969 201.516H237.156V217.969H263.969V201.516Z" fill="#F06151"/>
<path d="M263.969 220H237.156C235.938 220 235.125 219.187 235.125 217.969V201.516C235.125 200.297 235.938 199.484 237.156 199.484H263.969C265.187 199.484 266 200.297 266 201.516V217.969C266 219.187 265.187 220 263.969 220ZM239.188 215.937H261.938V203.547H239.188V215.937Z" fill="#183651"/>
<path d="M164.844 92.0312H138.031V108.484H164.844V92.0312Z" fill="#F06151"/>
<path d="M164.844 110.516H138.031C136.813 110.516 136 109.703 136 108.484V92.0313C136 90.8126 136.813 90 138.031 90H164.844C166.062 90 166.875 90.8126 166.875 92.0313V108.484C166.875 109.5 166.062 110.516 164.844 110.516ZM140.063 106.453H162.813V94.0625H140.063V106.453Z" fill="#183651"/>
</g>
<circle cx="120" cy="283" r="120" fill="#153C34"/>
<path d="M84.8441 270.313V262.334C84.8441 261.566 85.3763 260.939 86.0255 260.939H100.069C100.719 260.939 101.25 261.581 101.25 262.334V270.313" fill="#2A8EE6"/>
<path d="M101.25 272.657C99.9557 272.657 98.9062 271.608 98.9062 270.313V263.282H87.1877V270.313C87.1877 271.608 86.1381 272.657 84.8438 272.657C83.5495 272.657 82.5 271.608 82.5 270.313V262.334C82.5 260.272 84.0813 258.595 86.0249 258.595H100.068C102.012 258.595 103.593 260.272 103.593 262.334V270.313C103.594 271.608 102.544 272.657 101.25 272.657Z" fill="black"/>
<path d="M59.063 270.313V262.334C59.063 261.566 59.5944 260.939 60.2447 260.939H74.2885C74.9377 260.939 75.4698 261.581 75.4698 262.334V270.313" fill="#2A8EE6"/>
<path d="M75.4692 272.657C74.1749 272.657 73.1254 271.608 73.1254 270.313V263.282H61.4069V270.313C61.4069 271.608 60.3574 272.657 59.0631 272.657C57.7688 272.657 56.7192 271.608 56.7192 270.313V262.334C56.7192 260.272 58.3006 258.595 60.2448 258.595H74.2886C76.2321 258.595 77.8134 260.272 77.8134 262.334V270.313C77.8131 271.608 76.7635 272.657 75.4692 272.657Z" fill="black"/>
<path d="M112.968 270.313V262.334C112.968 261.566 113.501 260.939 114.15 260.939H128.194C128.843 260.939 129.375 261.581 129.375 262.334V270.313" fill="#2A8EE6"/>
<path d="M129.375 272.657C128.08 272.657 127.031 271.608 127.031 270.313V263.282H115.312V270.313C115.312 271.608 114.263 272.657 112.969 272.657C111.674 272.657 110.625 271.608 110.625 270.313V262.334C110.625 260.272 112.206 258.595 114.15 258.595H128.194C130.137 258.595 131.719 260.272 131.719 262.334V270.313C131.719 271.608 130.669 272.657 129.375 272.657Z" fill="black"/>
<path d="M166.874 312.5V304.521C166.874 303.753 167.406 303.126 168.056 303.126H182.099C182.749 303.126 183.281 303.767 183.281 304.521V312.5" fill="#FBAD4A"/>
<path d="M183.28 314.844C181.986 314.844 180.936 313.795 180.936 312.5V305.469H169.218V312.5C169.218 313.795 168.168 314.844 166.874 314.844C165.58 314.844 164.53 313.795 164.53 312.5V304.521C164.53 302.459 166.111 300.782 168.056 300.782H182.099C184.042 300.782 185.624 302.459 185.624 304.521V312.5C185.624 313.795 184.575 314.844 183.28 314.844Z" fill="black"/>
<path d="M103.381 312.5H190.525C191.698 312.5 192.655 313.461 192.655 314.645V345.511C192.655 346.691 191.698 347.656 190.525 347.656H103.381C102.208 347.656 101.25 346.691 101.25 345.511V314.645C101.25 313.462 102.208 312.5 103.381 312.5Z" fill="#FEDA4F"/>
<path d="M190.525 350H103.38C100.913 350 98.9059 347.986 98.9059 345.512V314.645C98.9059 312.17 100.913 310.157 103.38 310.157H190.525C192.992 310.157 194.999 312.171 194.999 314.645V345.512C194.999 347.987 192.992 350 190.525 350ZM103.594 345.312H190.312V314.844H103.594V345.312ZM190.525 314.844H190.548H190.525Z" fill="black"/>
<path d="M49.4749 270.313H136.62C137.792 270.313 138.75 271.275 138.75 272.458V303.324C138.75 304.504 137.792 305.469 136.62 305.469H49.4749C48.3018 305.469 47.3446 304.504 47.3446 303.324V272.458C47.3446 271.275 48.3021 270.313 49.4749 270.313Z" fill="#2BBBE9"/>
<path d="M136.619 307.813H49.4745C47.0074 307.813 45 305.799 45 303.325V272.459C45 269.984 47.0067 267.97 49.4741 267.97H136.619C139.086 267.97 141.092 269.984 141.092 272.459V303.325C141.093 305.8 139.086 307.813 136.619 307.813ZM49.688 303.125H136.406V272.657H49.688V303.125ZM136.619 272.657H136.642H136.619Z" fill="black"/>
<path d="M49.4184 312.5H89.7996C90.9421 312.5 91.8742 313.467 91.8742 314.645V345.511C91.8742 346.686 90.9363 347.656 89.7996 347.656H49.4184C48.2824 347.656 47.3438 346.691 47.3438 345.511V314.645C47.3444 313.462 48.2765 312.5 49.4184 312.5Z" fill="#FBAD4A"/>
<path d="M89.8004 350H49.4192C46.9831 350 45.0007 347.986 45.0007 345.512V314.645C45.0007 312.17 46.9831 310.157 49.4192 310.157H89.8004C92.2366 310.157 94.2189 312.171 94.2189 314.645V345.512C94.2189 347.987 92.2369 350 89.8004 350ZM49.6881 345.312H89.5312V314.844H49.6881V345.312ZM89.8004 314.844H89.8237H89.8004Z" fill="black"/>
<path d="M147.827 224.046L151.684 217.139C152.055 216.473 152.836 216.216 153.417 216.561L166.003 224.069C166.584 224.419 166.748 225.257 166.385 225.909L162.526 232.814" fill="#ED5481"/>
<path d="M162.522 235.158C162.135 235.158 161.743 235.062 161.381 234.86C160.251 234.228 159.847 232.8 160.479 231.671L163.902 225.546L153.229 219.179L149.872 225.189C149.241 226.319 147.813 226.723 146.684 226.092C145.554 225.461 145.149 224.033 145.78 222.903L149.637 215.996C150.133 215.105 150.97 214.445 151.932 214.187C152.853 213.938 153.806 214.066 154.613 214.546L167.202 222.056C168.86 223.052 169.409 225.289 168.433 227.047L164.57 233.957C164.141 234.725 163.345 235.158 162.522 235.158Z" fill="black"/>
<path d="M124.389 209.981L128.249 203.077C128.621 202.412 129.397 202.151 129.982 202.5L142.565 210.008C143.146 210.354 143.31 211.194 142.947 211.845L139.088 218.752" fill="#ED5481"/>
<path d="M139.085 221.096C138.698 221.096 138.305 221 137.944 220.798C136.814 220.166 136.41 218.738 137.041 217.608L140.463 211.484L129.793 205.117L126.435 211.125C125.803 212.255 124.375 212.658 123.246 212.027C122.116 211.395 121.712 209.967 122.344 208.838L126.203 201.934C126.703 201.04 127.541 200.38 128.503 200.123C129.422 199.875 130.373 200.005 131.181 200.486L143.765 207.995C145.425 208.983 145.978 211.222 144.994 212.986L141.134 219.895C140.704 220.663 139.907 221.096 139.085 221.096ZM141.363 212.021C141.364 212.022 141.365 212.022 141.366 212.023L141.363 212.021Z" fill="black"/>
<path d="M171.264 238.108L175.121 231.201C175.492 230.536 176.272 230.277 176.854 230.624L189.437 238.132C190.021 238.48 190.185 239.318 189.82 239.972L185.963 246.877" fill="#ED5481"/>
<path d="M185.96 249.221C185.574 249.221 185.181 249.124 184.82 248.923C183.689 248.291 183.285 246.864 183.916 245.734L187.337 239.609L176.666 233.241L173.31 239.251C172.679 240.382 171.25 240.785 170.121 240.155C168.991 239.523 168.586 238.096 169.217 236.966L173.075 230.059C173.572 229.168 174.409 228.508 175.371 228.249C176.293 228.002 177.244 228.129 178.051 228.609L190.637 236.119C192.3 237.111 192.851 239.354 191.864 241.116L188.008 248.019C187.58 248.788 186.782 249.221 185.96 249.221Z" fill="black"/>
<path d="M117.173 207.311L191.607 249.873C192.608 250.446 192.953 251.724 192.374 252.717L177.258 278.649C176.68 279.642 175.389 279.983 174.389 279.413L99.9564 236.848C98.9546 236.276 98.6071 234.996 99.1884 234.007L114.305 208.072C114.883 207.079 116.174 206.738 117.173 207.311Z" fill="#F87EA1"/>
<path d="M175.427 282.031C174.679 282.031 173.921 281.844 173.229 281.449L98.7926 238.882C97.7578 238.291 97.0183 237.331 96.7114 236.179C96.4061 235.033 96.5679 233.84 97.1666 232.82L112.279 206.892C113.504 204.79 116.221 204.065 118.338 205.278L192.769 247.839C193.802 248.429 194.539 249.386 194.847 250.534C195.154 251.68 194.995 252.875 194.398 253.898L179.282 279.83C178.461 281.24 176.963 282.031 175.427 282.031ZM101.353 234.947L175.353 277.264L190.21 251.775L116.208 209.459L101.353 234.947ZM190.443 251.908H190.467H190.443ZM116.009 209.345H116.009H116.009Z" fill="black"/>
<circle cx="265" cy="408" r="135" fill="#09DBA0"/>
<g clip-path="url(#clip2)">
<path d="M192.212 365.804C192.212 365.804 192.423 441.887 192.212 450.05C192.423 457.861 198.816 464.129 206.678 464.129H279.27L327.446 415.953V365.804H192.212Z" fill="#E0E0E2"/>
<path d="M262.841 480.558H337.798V405.601L262.841 480.558ZM321.883 464.95H297.822L321.883 440.89V464.95Z" fill="#FFCA10"/>
<path d="M330.46 412.939V480.558H337.798V405.601L330.46 412.939Z" fill="#FFA304"/>
<path d="M321.033 343.605L314.191 336.763C312.429 335.001 309.573 335.001 307.811 336.763L301.892 342.683L315.114 355.905L321.033 349.985C322.795 348.223 322.795 345.367 321.033 343.605Z" fill="#546F7A"/>
<path d="M321.033 343.605L316.625 339.198C318.387 340.96 318.387 343.817 316.625 345.578L310.706 351.498L315.114 355.905L321.033 349.985C322.795 348.223 322.795 345.367 321.033 343.605Z" fill="#475D63"/>
<path d="M315.112 355.903L301.89 342.682L294.737 349.835L307.959 363.057L315.112 355.903Z" fill="#FF6137"/>
<path d="M315.114 355.903L310.708 351.496L303.555 358.649L307.961 363.056L315.114 355.903Z" fill="#E04F32"/>
<path d="M238.828 418.968L259.243 411.762L246.035 398.553L238.828 418.968Z" fill="#FFC89F"/>
<path d="M254.851 407.369L241.225 412.179L238.828 418.968L259.243 411.762L254.851 407.369Z" fill="#F7B081"/>
<path d="M259.264 411.755L307.958 363.061L294.736 349.839L246.042 398.533L259.264 411.755Z" fill="#FFD039"/>
<path d="M259.264 411.755L307.958 363.061L303.556 358.659L254.862 407.353L259.264 411.755Z" fill="#FFA304"/>
<path d="M207.316 435.333V341.822C198.968 341.822 192.201 348.589 192.201 356.936V450.448C192.202 442.1 198.969 435.333 207.316 435.333Z" fill="#919191"/>
<path d="M230.609 418.968H238.828L246.042 398.532L278.771 365.804H270.551L237.823 398.532L230.609 418.968Z" fill="#C6C5CA"/>
<path d="M320.108 365.804V423.291L327.446 415.953V365.804H320.108Z" fill="#C6C5CA"/>
<path d="M238.828 418.968L248.356 415.605L242.192 409.441L238.828 418.968Z" fill="#3C5156"/>
<path d="M322.725 438.856C321.902 438.515 320.956 438.704 320.326 439.333L296.265 463.394C295.636 464.024 295.448 464.97 295.788 465.793C296.129 466.616 296.932 467.152 297.822 467.152H321.883C323.099 467.152 324.084 466.167 324.084 464.951V440.89C324.084 440 323.548 439.197 322.725 438.856ZM319.681 462.749H303.137L319.681 446.205L319.681 462.749Z" fill="black"/>
<path d="M338.641 403.567C337.819 403.226 336.872 403.414 336.242 404.044L329.648 410.637V365.804C329.648 364.588 328.662 363.602 327.446 363.602H310.53L316.671 357.462C316.671 357.461 316.672 357.46 316.673 357.459L322.59 351.542C323.858 350.274 324.556 348.588 324.556 346.795C324.556 345.002 323.858 343.316 322.59 342.048L315.748 335.206C314.48 333.938 312.794 333.24 311.001 333.24C309.208 333.24 307.522 333.938 306.254 335.206L300.334 341.126L293.181 348.279L277.858 363.602H209.518V341.821C209.518 340.605 208.532 339.62 207.316 339.62C197.768 339.62 190 347.388 190 356.936V450.448C190 450.61 190.019 450.769 190.052 450.921C190.356 454.972 192.109 458.737 195.038 461.594C198.17 464.648 202.303 466.33 206.678 466.33H273.955L261.284 479.001C260.655 479.631 260.466 480.578 260.807 481.4C261.148 482.223 261.951 482.759 262.841 482.759H337.799C339.014 482.759 340 481.774 340 480.558V405.601C340 404.71 339.464 403.907 338.641 403.567ZM301.891 345.797L312 355.905L307.961 359.945L297.852 349.836L301.891 345.797ZM309.368 338.32C310.268 337.419 311.735 337.419 312.635 338.32L319.477 345.162C320.378 346.063 320.378 347.528 319.477 348.429L315.114 352.792L305.005 342.683L309.368 338.32ZM268.156 478.356L280.823 465.69C280.824 465.688 280.826 465.687 280.827 465.686L286.458 460.055L290.394 456.118C291.254 455.258 291.254 453.864 290.394 453.005C290.296 452.906 290.19 452.82 290.079 452.744C289.221 452.157 288.042 452.243 287.28 453.005L278.358 461.927H206.678C200.001 461.927 194.625 456.714 194.414 450.049C194.426 449.63 194.459 449.216 194.511 448.805C194.511 448.803 194.512 448.801 194.512 448.798C194.537 448.604 194.566 448.41 194.6 448.217C194.604 448.195 194.608 448.173 194.612 448.151C194.642 447.979 194.677 447.808 194.715 447.637C194.725 447.59 194.736 447.543 194.748 447.495C194.781 447.351 194.817 447.208 194.856 447.065C194.877 446.988 194.899 446.911 194.921 446.834C194.954 446.722 194.987 446.611 195.022 446.5C195.058 446.39 195.095 446.281 195.134 446.171C195.161 446.095 195.187 446.018 195.216 445.943C195.269 445.799 195.326 445.656 195.385 445.515C195.401 445.474 195.418 445.433 195.435 445.392C195.51 445.216 195.589 445.042 195.671 444.871C195.675 444.863 195.678 444.856 195.682 444.849C197.403 441.285 200.716 438.628 204.69 437.804C204.701 437.801 204.713 437.799 204.724 437.796C204.906 437.759 205.09 437.727 205.275 437.698C205.306 437.693 205.337 437.686 205.368 437.682C205.535 437.656 205.704 437.636 205.873 437.617C205.921 437.612 205.968 437.605 206.016 437.6C206.179 437.584 206.344 437.573 206.508 437.563C206.56 437.559 206.613 437.554 206.665 437.551C206.88 437.54 207.098 437.535 207.316 437.535C208.532 437.535 209.518 436.549 209.518 435.333V419.369C209.518 418.153 208.532 417.168 207.316 417.168C206.1 417.168 205.114 418.153 205.114 419.369V433.27C201.397 433.74 197.946 435.398 195.225 438.056C194.938 438.335 194.667 438.626 194.403 438.921V356.936C194.403 350.567 199.04 345.259 205.114 344.211V365.804V410.563V410.563C205.114 411.779 206.1 412.765 207.316 412.765C208.532 412.765 209.518 411.779 209.518 410.563V410.563V368.006H273.455L261.284 380.177C260.424 381.037 260.424 382.431 261.284 383.291C262.144 384.15 263.538 384.15 264.398 383.291L280.327 367.361C280.328 367.36 280.328 367.36 280.329 367.359L294.738 352.95L304.847 363.059L303.661 364.245C303.66 364.245 303.659 364.246 303.658 364.247L259.265 408.641L249.156 398.532L257.906 389.782C258.766 388.922 258.766 387.528 257.906 386.668C257.047 385.809 255.653 385.809 254.793 386.668L244.486 396.975C244.43 397.03 244.379 397.089 244.331 397.149C244.314 397.168 244.3 397.19 244.285 397.211C244.254 397.252 244.223 397.294 244.195 397.337C244.179 397.362 244.164 397.388 244.149 397.414C244.125 397.455 244.101 397.496 244.08 397.539C244.066 397.566 244.053 397.594 244.04 397.623C244.021 397.666 244.002 397.71 243.986 397.754C243.98 397.769 243.972 397.784 243.967 397.8L239.677 409.95L236.753 418.235C236.714 418.345 236.686 418.457 236.666 418.57H229.344C228.128 418.57 227.142 419.556 227.142 420.772C227.142 421.988 228.128 422.974 229.344 422.974H290.315C291.531 422.974 292.516 421.988 292.516 420.772C292.516 419.556 291.531 418.57 290.315 418.57H246.57L259.997 413.831C260.008 413.826 260.019 413.821 260.03 413.817C260.082 413.797 260.133 413.776 260.184 413.753C260.204 413.743 260.224 413.734 260.244 413.725C260.297 413.698 260.349 413.669 260.4 413.638C260.416 413.628 260.433 413.619 260.449 413.609C260.502 413.575 260.554 413.538 260.604 413.499C260.617 413.489 260.63 413.48 260.643 413.47C260.704 413.421 260.764 413.368 260.821 413.311L306.127 368.006H325.244V415.041L293.751 446.534C292.891 447.395 292.891 448.788 293.751 449.648C293.805 449.702 293.861 449.752 293.919 449.799C294.322 450.128 294.815 450.293 295.308 450.293C295.801 450.293 296.294 450.128 296.698 449.799C296.755 449.752 296.811 449.702 296.865 449.648L329.003 417.51C329.004 417.509 329.005 417.508 329.005 417.507L335.597 410.916V430.34H331.535C330.319 430.34 329.333 431.325 329.333 432.542C329.333 433.758 330.319 434.743 331.535 434.743H335.597V441.378H331.535C330.319 441.378 329.333 442.363 329.333 443.58C329.333 444.796 330.319 445.781 331.535 445.781H335.597V452.415H331.535C330.319 452.415 329.333 453.401 329.333 454.617C329.333 455.833 330.319 456.819 331.535 456.819H335.597V463.453H331.535C330.319 463.453 329.333 464.439 329.333 465.655C329.333 466.871 330.319 467.857 331.535 467.857H335.597V478.357L268.156 478.356ZM248.931 413.067L244.729 408.865L246.956 402.559L255.238 410.841L248.931 413.067Z" fill="black"/>
</g>
<defs>
<linearGradient id="paint0_linear" x1="259" y1="89.1931" x2="389" y2="89.1931" gradientUnits="userSpaceOnUse">
<stop stop-color="#FFDBED" stop-opacity="0"/>
<stop offset="1" stop-color="#FFDBED"/>
</linearGradient>
<clipPath id="clip0">
<rect width="130" height="130" fill="white" transform="translate(259 25)"/>
</clipPath>
<clipPath id="clip1">
<rect width="130" height="130" fill="white" transform="translate(136 90)"/>
</clipPath>
<clipPath id="clip2">
<rect width="150" height="150" fill="white" transform="translate(190 333)"/>
</clipPath>
</defs>
</svg>
