<svg width="130" height="124" viewBox="0 0 130 124" fill="none" xmlns="http://www.w3.org/2000/svg">
<path d="M5.16363 30.0926C-0.921744 40.096 -1.56311 57.4162 2.89447 68.2435C6.79878 77.7272 14.5655 86.6289 24.7609 87.7438C28.5101 88.1538 32.342 87.4838 36.0526 88.1597C48.8132 90.4834 53.5599 106.21 63.477 114.569C70.3787 120.387 79.955 122.446 88.9118 121.325C97.8686 120.204 106.254 116.155 113.636 110.96C119.465 106.857 124.919 101.813 127.795 95.2919C133.824 81.6218 126.731 65.2038 115.712 55.114C112.281 51.9714 108.455 49.1995 105.588 45.5349C102.721 41.87 100.896 36.9795 102.262 32.5314C103.352 28.9825 106.286 26.2314 107.398 22.6892C108.91 17.869 106.627 12.4616 102.878 9.07576C99.1282 5.68992 94.1667 3.98773 89.2515 2.8195C68.659 -2.07606 23.5348 -0.106767 5.16363 30.0926Z" fill="url(#paint0_linear)"/>
<path opacity="0.1" d="M88.9259 123.232H41.0737C36.8668 123.232 33.4565 119.822 33.4565 115.615V18.9585C33.4565 14.7515 36.8668 11.3413 41.0737 11.3413H88.9259C93.1329 11.3413 96.5431 14.7515 96.5431 18.9585V115.615C96.5431 119.822 93.1329 123.232 88.9259 123.232Z" fill="#2626BC"/>
<path d="M88.9259 117.138H41.0737C36.8668 117.138 33.4565 113.728 33.4565 109.521V12.8647C33.4565 8.65777 36.8668 5.24756 41.0737 5.24756H88.9259C93.1329 5.24756 96.5431 8.65777 96.5431 12.8647V109.521C96.5431 113.728 93.1329 117.138 88.9259 117.138Z" fill="#6583FE"/>
<path d="M33.4572 16.1425H96.5427V106.244H33.4572V16.1425Z" fill="white"/>
<path d="M88.9259 118.408H41.0737C36.1736 118.408 32.187 114.421 32.187 109.521V12.8647C32.187 7.96461 36.1736 3.97803 41.0737 3.97803H88.9262C93.8263 3.97803 97.8129 7.96461 97.8129 12.8647V109.521C97.8126 114.421 93.826 118.408 88.9259 118.408ZM41.0737 6.51709C37.5736 6.51709 34.7261 9.36465 34.7261 12.8647V109.521C34.7261 113.021 37.5736 115.869 41.0737 115.869H88.9262C92.4263 115.869 95.2738 113.021 95.2738 109.521V12.8647C95.2738 9.36465 92.4263 6.51709 88.9262 6.51709H41.0737Z" fill="#2626BC"/>
<path d="M69.4389 12.197H60.5608C59.8598 12.197 59.2913 11.6285 59.2913 10.9274C59.2913 10.2264 59.8598 9.6579 60.5608 9.6579H69.4389C70.1399 9.6579 70.7084 10.2264 70.7084 10.9274C70.7084 11.6285 70.1399 12.197 69.4389 12.197Z" fill="#B7C5FF"/>
<path d="M75.3626 12.1969C76.064 12.1969 76.6326 11.6283 76.6326 10.9269C76.6326 10.2255 76.064 9.65686 75.3626 9.65686C74.6611 9.65686 74.0925 10.2255 74.0925 10.9269C74.0925 11.6283 74.6611 12.1969 75.3626 12.1969Z" fill="#B7C5FF"/>
<path d="M89.2352 24.7397V46.2963C89.2352 47.6979 88.0977 48.8354 86.6961 48.8354H43.3036C41.902 48.8354 40.7645 47.6979 40.7645 46.2963V24.7397C40.7645 23.3381 41.902 22.2006 43.3036 22.2006H86.6961C88.0977 22.2006 89.2352 23.3381 89.2352 24.7397Z" fill="#9FB0FE"/>
<path d="M89.2353 29.574V46.2963C89.2353 47.6979 88.0978 48.8354 86.6962 48.8354H55.7501C55.6562 48.0381 55.6079 47.2256 55.6079 46.403C55.6079 34.7918 65.0202 25.3795 76.6339 25.3795C81.3591 25.3795 85.7237 26.941 89.2353 29.574Z" fill="#8399FE"/>
<path d="M89.2352 96.1661V106.244H40.7645V96.1661C40.7645 94.7646 41.902 93.6271 43.3036 93.6271H86.6961C88.0977 93.6271 89.2352 94.7646 89.2352 96.1661Z" fill="#02FFB3"/>
<path d="M60.6987 99.9366C60.6987 102.207 60.1554 104.35 59.193 106.244H40.7645V96.1661C40.7645 94.7646 41.902 93.6271 43.3036 93.6271H59.193C60.1554 95.5238 60.6987 97.6667 60.6987 99.9366Z" fill="#97FFD2"/>
<path d="M62.0276 67.4675H42.0345C41.3335 67.4675 40.765 66.899 40.765 66.198V56.108C40.765 55.407 41.3335 54.8385 42.0345 54.8385H62.0276C62.7287 54.8385 63.2972 55.407 63.2972 56.108V66.198C63.2972 66.8993 62.7287 67.4675 62.0276 67.4675Z" fill="#FF7EB8"/>
<path d="M87.9654 67.4675H67.9723C67.2713 67.4675 66.7028 66.899 66.7028 66.198V56.108C66.7028 55.407 67.2713 54.8385 67.9723 54.8385H87.9654C88.6664 54.8385 89.2349 55.407 89.2349 56.108V66.198C89.2349 66.8993 88.6664 67.4675 87.9654 67.4675Z" fill="#02FFB3"/>
<path d="M62.0276 83.0538H42.0345C41.3335 83.0538 40.765 82.4854 40.765 81.7843V71.6943C40.765 70.9933 41.3335 70.4248 42.0345 70.4248H62.0276C62.7287 70.4248 63.2972 70.9933 63.2972 71.6943V81.7843C63.2972 82.4854 62.7287 83.0538 62.0276 83.0538Z" fill="#8399FE"/>
<path d="M87.9654 83.0538H67.9723C67.2713 83.0538 66.7028 82.4854 66.7028 81.7843V71.6943C66.7028 70.9933 67.2713 70.4248 67.9723 70.4248H87.9654C88.6664 70.4248 89.2349 70.9933 89.2349 71.6943V81.7843C89.2349 82.4854 88.6664 83.0538 87.9654 83.0538Z" fill="#FFC4DF"/>
<path d="M63.9 37.1122H47.2231C46.5221 37.1122 45.9536 37.6807 45.9536 38.3818C45.9536 39.0828 46.5221 39.6513 47.2231 39.6513H63.9C64.601 39.6513 65.1695 39.0828 65.1695 38.3818C65.1695 37.6807 64.6012 37.1122 63.9 37.1122Z" fill="white"/>
<path d="M63.9 32.1794H47.2231C46.5221 32.1794 45.9536 32.7479 45.9536 33.449C45.9536 34.15 46.5221 34.7185 47.2231 34.7185H63.9C64.601 34.7185 65.1695 34.15 65.1695 33.449C65.1695 32.7479 64.6012 32.1794 63.9 32.1794Z" fill="white"/>
<path d="M50.189 26.252H47.2231C46.5221 26.252 45.9536 26.8204 45.9536 27.5215C45.9536 28.2225 46.5221 28.791 47.2231 28.791H50.189C50.8901 28.791 51.4586 28.2225 51.4586 27.5215C51.4586 26.8204 50.8903 26.252 50.189 26.252Z" fill="#FFC4DF"/>
<path d="M52.6174 88.4386H42.0343C41.3333 88.4386 40.7648 89.0071 40.7648 89.7081C40.7648 90.4092 41.3333 90.9777 42.0343 90.9777H52.6174C53.3184 90.9777 53.8869 90.4092 53.8869 89.7081C53.8869 89.0071 53.3184 88.4386 52.6174 88.4386Z" fill="#8399FE"/>
<path d="M89.2351 96.1661V102.41C84.4235 102.41 80.521 98.5097 80.521 93.6982V93.6271H86.696C88.0976 93.6271 89.2351 94.7646 89.2351 96.1661Z" fill="#01ECA5"/>
<path d="M107.073 39.5087C105.073 39.5087 103.445 37.8809 103.445 35.8799C103.445 33.8788 105.073 32.251 107.073 32.251C109.074 32.251 110.702 33.8788 110.702 35.8799C110.702 37.8809 109.074 39.5087 107.073 39.5087ZM107.073 34.7903C106.473 34.7903 105.984 35.2791 105.984 35.8801C105.984 36.4811 106.473 36.9699 107.073 36.9699C107.674 36.9699 108.163 36.4811 108.163 35.8801C108.163 35.2791 107.674 34.7903 107.073 34.7903Z" fill="#FF5BA8"/>
<path d="M109.433 50.3687C107.432 50.3687 105.804 48.7409 105.804 46.7399C105.804 44.7388 107.432 43.111 109.433 43.111C111.433 43.111 113.061 44.7388 113.061 46.7399C113.061 48.7409 111.433 50.3687 109.433 50.3687ZM109.433 45.6503C108.832 45.6503 108.343 46.1391 108.343 46.7401C108.343 47.3411 108.832 47.8299 109.433 47.8299C110.033 47.8299 110.522 47.3411 110.522 46.7401C110.522 46.1391 110.033 45.6503 109.433 45.6503Z" fill="#6583FE"/>
<path d="M21.0758 28.3035C20.3745 28.3035 19.8063 27.735 19.8063 27.034C19.8063 26.1938 19.123 25.5106 18.2828 25.5106C17.5815 25.5106 17.0133 24.9421 17.0133 24.241C17.0133 23.54 17.5815 22.9715 18.2828 22.9715C19.123 22.9715 19.8063 22.2882 19.8063 21.4481C19.8063 20.747 20.3745 20.1785 21.0758 20.1785C21.7771 20.1785 22.3453 20.747 22.3453 21.4481C22.3453 22.2882 23.0286 22.9715 23.8688 22.9715C24.5701 22.9715 25.1383 23.54 25.1383 24.241C25.1383 24.9421 24.5701 25.5106 23.8688 25.5106C23.0286 25.5106 22.3453 26.1938 22.3453 27.034C22.3453 27.735 21.7771 28.3035 21.0758 28.3035Z" fill="#01ECA5"/>
<path d="M22.2819 103.011C21.5806 103.011 21.0123 102.443 21.0123 101.742C21.0123 100.901 20.3291 100.218 19.4889 100.218C18.7876 100.218 18.2194 99.6497 18.2194 98.9487C18.2194 98.2476 18.7876 97.6791 19.4889 97.6791C20.3291 97.6791 21.0123 96.9959 21.0123 96.1557C21.0123 95.4547 21.5806 94.8862 22.2819 94.8862C22.9831 94.8862 23.5514 95.4547 23.5514 96.1557C23.5514 96.9959 24.2347 97.6791 25.0748 97.6791C25.7761 97.6791 26.3444 98.2476 26.3444 98.9487C26.3444 99.6497 25.7761 100.218 25.0748 100.218C24.2347 100.218 23.5514 100.901 23.5514 101.742C23.5514 102.443 22.9831 103.011 22.2819 103.011Z" fill="#01ECA5"/>
<path d="M18.2828 90.8347C17.5816 90.8347 17.0133 90.2662 17.0133 89.5652C17.0133 88.725 16.33 88.0417 15.4899 88.0417C14.7886 88.0417 14.2203 87.4733 14.2203 86.7722C14.2203 86.0712 14.7886 85.5027 15.4899 85.5027C16.33 85.5027 17.0133 84.8192 17.0133 83.9792C17.0133 83.2782 17.5816 82.7097 18.2828 82.7097C18.9841 82.7097 19.5524 83.2782 19.5524 83.9792C19.5524 84.8194 20.2356 85.5027 21.0758 85.5027C21.7771 85.5027 22.3453 86.0712 22.3453 86.7722C22.3453 87.4733 21.7771 88.0417 21.0758 88.0417C20.2356 88.0417 19.5524 88.725 19.5524 89.5652C19.5524 90.2662 18.9841 90.8347 18.2828 90.8347Z" fill="#FF5BA8"/>
<defs>
<linearGradient id="paint0_linear" x1="-6.42292e-05" y1="61.1931" x2="130" y2="61.1931" gradientUnits="userSpaceOnUse">
<stop stop-color="#FFDBED" stop-opacity="0"/>
<stop offset="1" stop-color="#FFDBED"/>
</linearGradient>
</defs>
</svg>
