<svg width="150" height="150" viewBox="0 0 150 150" fill="none" xmlns="http://www.w3.org/2000/svg">
<g clip-path="url(#clip0)">
<path d="M2.21167 32.8038C2.21167 32.8038 2.4229 108.887 2.21167 117.05C2.4229 124.861 8.81637 131.129 16.6779 131.129H89.2701L137.446 82.9529V32.8038H2.21167Z" fill="#E0E0E2"/>
<path d="M72.8411 147.558H147.798V72.6007L72.8411 147.558ZM131.883 131.95H107.822L131.883 107.89V131.95Z" fill="#FFCA10"/>
<path d="M140.46 79.9393V147.558H147.798V72.6007L140.46 79.9393Z" fill="#FFA304"/>
<path d="M131.033 10.6051L124.191 3.76284C122.429 2.00093 119.573 2.00093 117.811 3.76284L111.892 9.68258L125.114 22.9046L131.033 16.9851C132.795 15.2232 132.795 12.3671 131.033 10.6051Z" fill="#546F7A"/>
<path d="M131.033 10.6052L126.625 6.19836C128.387 7.96028 128.387 10.8167 126.625 12.5784L120.706 18.4975L125.114 22.9049L131.033 16.9855C132.795 15.2233 132.795 12.3671 131.033 10.6052Z" fill="#475D63"/>
<path d="M125.112 22.9033L111.89 9.68164L104.737 16.8348L117.959 30.0565L125.112 22.9033Z" fill="#FF6137"/>
<path d="M125.114 22.9026L120.708 18.4961L113.555 25.6493L117.961 30.0557L125.114 22.9026Z" fill="#E04F32"/>
<path d="M48.8284 85.968L69.2434 78.7616L56.0348 65.5533L48.8284 85.968Z" fill="#FFC89F"/>
<path d="M64.8509 74.3694L51.2249 79.1791L48.8284 85.9681L69.2434 78.7616L64.8509 74.3694Z" fill="#F7B081"/>
<path d="M69.2639 78.7549L117.958 30.061L104.736 16.8391L56.042 65.533L69.2639 78.7549Z" fill="#FFD039"/>
<path d="M69.264 78.755L117.958 30.0612L113.556 25.6588L64.8617 74.3527L69.264 78.755Z" fill="#FFA304"/>
<path d="M17.3159 102.333V8.82166C8.9683 8.82166 2.20129 15.5887 2.20129 23.9362V117.448C2.20159 109.1 8.96859 102.333 17.3159 102.333Z" fill="#919191"/>
<path d="M40.609 85.9681H48.8283L56.0423 65.5323L88.7705 32.8038H80.5513L47.8231 65.5323L40.609 85.9681Z" fill="#C6C5CA"/>
<path d="M130.108 32.8038V90.2915L137.446 82.9529V32.8038H130.108Z" fill="#C6C5CA"/>
<path d="M48.8284 85.9681L58.3557 82.6051L52.1917 76.4413L48.8284 85.9681Z" fill="#3C5156"/>
<path d="M132.725 105.856C131.902 105.515 130.956 105.704 130.326 106.333L106.265 130.394C105.636 131.024 105.448 131.97 105.788 132.793C106.129 133.616 106.932 134.152 107.822 134.152H131.883C133.099 134.152 134.084 133.167 134.084 131.951V107.89C134.084 107 133.548 106.197 132.725 105.856ZM129.681 129.749H113.137L129.681 113.205L129.681 129.749Z" fill="black"/>
<path d="M148.641 70.5666C147.819 70.2256 146.872 70.414 146.242 71.0436L139.648 77.6375V32.8041C139.648 31.588 138.662 30.6024 137.446 30.6024H120.53L126.671 24.4618C126.671 24.4609 126.672 24.4597 126.673 24.4588L132.59 18.542C133.858 17.2743 134.556 15.588 134.556 13.795C134.556 12.0021 133.858 10.3163 132.59 9.04806L125.748 2.20606C124.48 0.93838 122.794 0.240234 121.001 0.240234C119.208 0.240234 117.522 0.93838 116.254 2.20606L110.334 8.1258L103.181 15.2789L87.858 30.6021H19.5176V8.82131C19.5176 7.60519 18.5318 6.61964 17.316 6.61964C7.76808 6.62023 0 14.3877 0 23.9362V117.448C0 117.61 0.01875 117.769 0.0521485 117.921C0.356251 121.972 2.10909 125.737 5.03849 128.594C8.16974 131.648 12.3032 133.33 16.6779 133.33H83.9548L71.2841 146.001C70.6545 146.631 70.4662 147.578 70.8069 148.4C71.1476 149.223 71.9506 149.759 72.841 149.759H147.799C149.014 149.759 150 148.774 150 147.558V72.6007C150 71.7104 149.464 70.9074 148.641 70.5666ZM111.891 12.7966L122 22.9052L117.961 26.945L107.852 16.8364L111.891 12.7966ZM119.368 5.32003C120.268 4.41944 121.735 4.41944 122.635 5.32003L129.477 12.1623C130.378 13.0626 130.378 14.5283 129.477 15.4289L125.114 19.7918L115.005 9.68293L119.368 5.32003ZM78.156 145.356L90.8228 132.69C90.8243 132.688 90.8258 132.687 90.8272 132.686L96.4578 127.055L100.394 123.118C101.254 122.258 101.254 120.864 100.394 120.005C100.296 119.906 100.19 119.82 100.079 119.744C99.2214 119.157 98.0419 119.243 97.2805 120.005L88.3578 128.927H16.6782C10.0011 128.927 4.6254 123.714 4.41388 117.049C4.42647 116.63 4.45899 116.216 4.51114 115.805C4.51144 115.803 4.51173 115.801 4.51202 115.798C4.53663 115.604 4.56622 115.41 4.59991 115.217C4.60372 115.195 4.60782 115.173 4.61163 115.151C4.64239 114.979 4.67696 114.808 4.71476 114.637C4.7253 114.59 4.73644 114.543 4.74757 114.495C4.78097 114.351 4.817 114.208 4.85567 114.065C4.87677 113.988 4.89874 113.911 4.9213 113.834C4.95353 113.722 4.98692 113.611 5.02237 113.5C5.05782 113.39 5.09532 113.281 5.134 113.171C5.16066 113.095 5.18702 113.018 5.21573 112.943C5.26935 112.799 5.32618 112.656 5.38478 112.515C5.40148 112.474 5.41788 112.433 5.43517 112.392C5.51046 112.216 5.58868 112.042 5.6713 111.871C5.67482 111.863 5.67804 111.856 5.68155 111.849C7.40334 108.285 10.7156 105.628 14.6904 104.804C14.7015 104.801 14.7126 104.799 14.7238 104.796C14.906 104.759 15.09 104.727 15.2751 104.698C15.3059 104.693 15.3367 104.686 15.368 104.682C15.5353 104.656 15.7043 104.636 15.8734 104.617C15.9208 104.612 15.968 104.605 16.0158 104.6C16.1789 104.584 16.3436 104.573 16.5082 104.563C16.5604 104.559 16.6125 104.554 16.6647 104.551C16.8803 104.54 17.0977 104.535 17.316 104.535C18.5318 104.535 19.5176 103.549 19.5176 102.333V86.3694C19.5176 85.1533 18.5318 84.1677 17.316 84.1677C16.1001 84.1677 15.1143 85.1533 15.1143 86.3694V100.27C11.3965 100.74 7.94562 102.398 5.22452 105.056C4.93829 105.335 4.667 105.626 4.40304 105.921V23.9362C4.40304 17.5667 9.03957 12.259 15.1143 11.2108V32.8041V77.563V77.5633C15.1143 78.7792 16.1001 79.765 17.316 79.765C18.5318 79.765 19.5176 78.7792 19.5176 77.5633V77.563V35.0057H83.4552L71.2841 47.1768C70.4243 48.037 70.4243 49.4307 71.2841 50.2905C72.144 51.1501 73.5379 51.1501 74.3975 50.2905L90.3271 34.3609C90.3277 34.3603 90.328 34.3597 90.3286 34.3594L104.738 19.9497L114.847 30.0587L113.661 31.2446C113.66 31.2455 113.659 31.2463 113.658 31.2472L69.2647 75.6409L59.1561 65.5322L67.9065 56.7818C68.7663 55.9217 68.7663 54.528 67.9065 53.6682C67.0466 52.8086 65.6527 52.8086 64.7931 53.6682L54.4856 63.9754C54.4305 64.0305 54.3789 64.0888 54.3306 64.1486C54.3145 64.1685 54.3001 64.1899 54.2849 64.2107C54.2538 64.252 54.2234 64.2936 54.1949 64.3369C54.1788 64.3621 54.1642 64.3879 54.1489 64.4137C54.1246 64.4547 54.1012 64.4963 54.0798 64.5388C54.0657 64.5663 54.0531 64.5942 54.0402 64.6229C54.0206 64.6659 54.0025 64.7099 53.9858 64.7538C53.9799 64.7694 53.9723 64.784 53.9667 64.7995L49.6773 76.9504L46.7529 85.2353C46.7143 85.3455 46.6864 85.4574 46.6656 85.5702H39.3437C38.1279 85.5702 37.1421 86.5557 37.1421 87.7718C37.1421 88.988 38.1279 89.9735 39.3437 89.9735H100.315C101.531 89.9735 102.516 88.988 102.516 87.7718C102.516 86.5557 101.531 85.5702 100.315 85.5702H56.5703L69.9971 80.8305C70.0082 80.8264 70.0188 80.8209 70.0299 80.8168C70.0821 80.7974 70.1333 80.7757 70.184 80.7526C70.2042 80.7432 70.2245 80.7344 70.2441 80.7248C70.2968 80.6984 70.3487 80.6694 70.3997 80.6383C70.4161 80.6284 70.4331 80.6193 70.4492 80.609C70.5022 80.5751 70.5538 80.5378 70.6044 80.4986C70.617 80.4889 70.6302 80.4804 70.6425 80.4705C70.7038 80.4212 70.7638 80.3682 70.8206 80.3114L116.127 35.0057H135.244V82.0408L103.751 113.534C102.891 114.395 102.891 115.788 103.751 116.648C103.805 116.702 103.861 116.752 103.919 116.799C104.322 117.128 104.815 117.293 105.308 117.293C105.801 117.293 106.294 117.128 106.698 116.799C106.755 116.752 106.811 116.702 106.865 116.648L139.003 84.5099C139.004 84.509 139.005 84.5082 139.005 84.5073L145.597 77.9158V97.3399H141.535C140.319 97.3399 139.333 98.3255 139.333 99.5416C139.333 100.758 140.319 101.743 141.535 101.743H145.597V108.378H141.535C140.319 108.378 139.333 109.363 139.333 110.58C139.333 111.796 140.319 112.781 141.535 112.781H145.597V119.415H141.535C140.319 119.415 139.333 120.401 139.333 121.617C139.333 122.833 140.319 123.819 141.535 123.819H145.597V130.453H141.535C140.319 130.453 139.333 131.439 139.333 132.655C139.333 133.871 140.319 134.857 141.535 134.857H145.597V145.357L78.156 145.356ZM58.9311 80.067L54.7293 75.8653L56.9556 69.5588L65.2375 77.8408L58.9311 80.067Z" fill="black"/>
</g>
<defs>
<clipPath id="clip0">
<rect width="150" height="150" fill="white"/>
</clipPath>
</defs>
</svg>
